<?xml version="1.0" encoding="UTF-8"?> <svg xmlns="http://www.w3.org/2000/svg" width="53" height="48" viewBox="0 0 53 48" fill="none"><path fill-rule="evenodd" clip-rule="evenodd" d="M12.1759 0.0199028C11.2521 0.127372 10.1343 0.330836 9.65488 0.47877C8.01075 0.985986 5.84861 2.1755 4.86078 3.1161C3.24674 4.65307 2.451 5.67688 1.58955 7.32518C0.128004 10.1216 -0.367773 13.7461 0.278274 16.9125C0.501283 18.0057 0.72206 18.7777 0.984991 19.3841C1.12667 19.7107 1.32537 20.1751 1.42663 20.416C1.70221 21.0715 2.64342 22.4988 3.41924 23.4377C3.7974 23.8954 9.14787 29.6091 15.3092 36.1349L26.5116 48L37.7611 36.0911C43.9483 29.5412 49.2778 23.854 49.6043 23.4529C50.7648 22.0275 51.3318 21.0839 52.0606 19.365C52.3789 18.6143 52.5323 18.0633 52.7718 16.8105C52.9776 15.7347 53.0031 15.4168 52.9997 13.9784C52.9963 12.5694 52.9663 12.2038 52.7697 11.1756C52.4314 9.40747 51.7441 7.70049 50.6932 6.01855C50.0411 4.97487 48.4077 3.20649 47.4792 2.53881C46.3611 1.73477 44.6286 0.864328 43.3789 0.47877C41.5066 -0.0988651 38.5268 -0.142132 36.5184 0.379185C35.5102 0.640894 33.9284 1.36033 32.8402 2.05209C32.3528 2.36189 32.2203 2.45815 31.6416 2.92323C31.271 3.22112 29.1619 5.47998 29.1619 5.57913C29.1619 5.62038 29.0159 5.85853 28.8373 6.10851C28.4375 6.66827 27.6059 8.37166 27.3151 9.22651C26.9859 10.1945 26.5999 12.0845 26.5997 12.7303C26.5997 12.8869 26.5624 13.0149 26.5169 13.0149C26.4715 13.0149 26.4342 12.8869 26.4342 12.7303C26.4339 12.0845 26.0479 10.1945 25.7187 9.22651C25.4279 8.37166 24.5963 6.66827 24.1965 6.10851C24.0179 5.85853 23.8719 5.62038 23.8719 5.57913C23.8719 5.47998 21.7628 3.22112 21.3922 2.92323C20.8135 2.45815 20.681 2.36189 20.1937 2.05209C18.5979 1.03784 16.9447 0.392761 15.2975 0.141912C14.6169 0.0382966 12.6715 -0.0378169 12.1759 0.0199028Z" fill="#8B1111"></path><path d="M15.34 34C15.3 34 15.28 33.94 15.28 33.82C15.28 33.7 15.3 33.64 15.34 33.64C16.3 33.64 17.01 33.59 17.47 33.49C17.95 33.37 18.28 33.17 18.46 32.89C18.64 32.61 18.73 32.17 18.73 31.57V18.76C18.73 17.8 18.49 17.32 18.01 17.32C17.75 17.32 17.39 17.45 16.93 17.71C16.49 17.95 15.91 18.34 15.19 18.88L15.13 18.91C15.05 18.91 14.99 18.86 14.95 18.76C14.91 18.66 14.93 18.59 15.01 18.55L19.75 15.04C19.85 14.98 19.92 14.95 19.96 14.95C20 14.95 20.03 14.97 20.05 15.01C20.09 15.05 20.11 15.09 20.11 15.13V31.57C20.11 32.19 20.19 32.64 20.35 32.92C20.51 33.2 20.82 33.39 21.28 33.49C21.74 33.59 22.48 33.64 23.5 33.64C23.54 33.64 23.56 33.7 23.56 33.82C23.56 33.94 23.54 34 23.5 34C22.78 34 22.21 33.99 21.79 33.97L19.42 33.94L17.08 33.97C16.66 33.99 16.08 34 15.34 34ZM31.9788 23.8C32.8988 23.8 33.6888 24.04 34.3488 24.52C35.0288 24.98 35.5388 25.59 35.8788 26.35C36.2388 27.11 36.4188 27.93 36.4188 28.81C36.4188 29.85 36.1688 30.8 35.6688 31.66C35.1888 32.5 34.5088 33.17 33.6288 33.67C32.7488 34.15 31.7588 34.39 30.6588 34.39C28.7988 34.39 27.3988 33.74 26.4588 32.44C25.5188 31.12 25.0488 29.38 25.0488 27.22C25.0488 25.24 25.4288 23.33 26.1888 21.49C26.9488 19.63 28.0488 18.1 29.4888 16.9C30.9288 15.68 32.6088 15.02 34.5288 14.92C34.5888 14.92 34.6288 14.97 34.6488 15.07C34.6888 15.15 34.6688 15.2 34.5888 15.22C32.9088 15.52 31.4688 16.26 30.2688 17.44C29.0888 18.6 28.1988 20.01 27.5988 21.67C26.9988 23.31 26.6988 24.99 26.6988 26.71C26.6988 28.67 27.0888 30.35 27.8688 31.75C28.6688 33.15 29.8788 33.85 31.4988 33.85C32.5988 33.85 33.4188 33.48 33.9588 32.74C34.4988 32 34.7688 30.97 34.7688 29.65C34.7688 28.17 34.4488 26.97 33.8088 26.05C33.1688 25.13 32.3188 24.67 31.2588 24.67C30.2188 24.67 29.2588 25.14 28.3788 26.08L28.3188 26.11C28.2388 26.11 28.1588 26.08 28.0788 26.02C28.0188 25.96 28.0088 25.91 28.0488 25.87C28.5288 25.19 29.1088 24.68 29.7888 24.34C30.4888 23.98 31.2188 23.8 31.9788 23.8Z" fill="white"></path></svg> 