<?xml version="1.0" encoding="UTF-8"?> <svg xmlns="http://www.w3.org/2000/svg" width="399" height="47" viewBox="0 0 399 47" fill="none"><path fill-rule="evenodd" clip-rule="evenodd" d="M197.443 2.42714C191.134 8.97337 189.973 15.1113 194.247 19.3284C197.042 22.0865 197.04 22.2048 194.133 29.4854C190.434 38.7518 185.702 42.0703 175.554 42.5145C165.04 42.9733 159.414 39.6247 145.955 24.895C131.703 9.29581 129.631 8.22344 114.163 8.43527C99.3613 8.63671 89.6681 12.1139 68.9135 24.6672C61.4129 29.2043 53.0068 33.1904 50.2332 33.5251C45.5737 34.0883 44.6459 33.5209 38.0531 26.0886C29.7372 16.7147 25.7845 13.9106 18.912 12.5153C13.4136 11.3996 3.58575 12.7972 1.10028 15.0482C-1.65123 17.54 0.833709 18.1726 7.74622 16.7408C18.9502 14.4193 23.8122 16.4217 33.7013 27.4299C41.8086 36.4549 42.8841 37.1758 48.5549 37.3875C53.7329 37.5808 57.247 36.1039 71.5181 27.7438C90.077 16.8688 100.727 12.6155 111.944 11.5953C124.505 10.4534 129.381 13.0651 144.594 29.0793C154.611 39.6244 159.562 43.7638 163.711 45.0617C179.538 50.0115 193.479 44.1125 197.954 30.5723L199.996 24.3911L218.904 25.0222C231.742 25.4507 248.011 24.6544 269.595 22.54C316.441 17.951 346.191 15.7355 372.073 14.9062C397.165 14.1038 399.931 13.7589 397.966 11.6772C395.269 8.81988 340.928 11.848 261.815 19.2632C233.565 21.9123 217.382 22.4216 209.265 20.9164L202.499 19.6632L203.737 12.3527C205.622 1.22872 202.836 -3.16814 197.443 2.42714ZM197.634 8.21114C195.568 11.6546 195.249 16.7909 197.097 16.8599C198.613 16.9165 201.231 7.46744 200.047 6.21401C199.639 5.7802 198.553 6.67967 197.634 8.21114Z" fill="#8B1111"></path></svg> 