<?xml version="1.0" encoding="UTF-8"?> <svg xmlns="http://www.w3.org/2000/svg" width="260" height="131" viewBox="0 0 260 131" fill="none"><path d="M86.6699 90.0723C86.6699 92.7723 86.724 94.9327 86.832 96.5527C87.0481 98.0645 87.6423 99.1441 88.6143 99.792C89.5862 100.44 91.2059 100.872 93.4736 101.088C95.8496 101.196 99.2518 101.25 103.68 101.25C104.652 101.25 105.192 101.358 105.3 101.574C105.516 101.682 105.624 102.222 105.624 103.194C105.624 104.706 105.462 106.327 105.138 108.055C104.922 109.891 104.706 112.482 104.49 115.83C104.274 119.178 104.166 123.93 104.166 130.086C104.166 130.518 103.842 130.734 103.194 130.734C102.546 130.734 102.222 130.518 102.222 130.086C102.222 120.906 100.169 114.103 96.0654 109.675C92.0694 105.355 85.4277 103.194 76.1396 103.194H25.4336C21.2217 103.194 17.4417 103.95 14.0938 105.462C10.8537 107.082 8.31549 109.837 6.47949 113.725C4.64364 117.72 3.72562 123.174 3.72559 130.086C3.72559 130.518 3.40189 130.734 2.75391 130.734C2.10591 130.734 1.78223 130.518 1.78223 130.086C1.78222 125.55 1.674 121.824 1.45801 118.908C1.35001 115.992 1.13357 113.616 0.80957 111.78C0.593574 109.944 0.378106 108.378 0.162109 107.082C0.0541251 105.786 0 104.436 0 103.032C4.55688e-06 102.168 0.0541139 101.628 0.162109 101.412C0.378224 101.196 0.864386 101.088 1.62012 101.088C6.26387 101.088 10.3678 99.5765 13.9316 96.5527C17.6036 93.4207 20.8443 89.3162 23.6523 84.2402C25.115 81.6942 26.4686 79.0121 27.7139 76.1943H33.1719C32.8146 77.1534 32.4515 78.1084 32.0762 79.0566C30.0242 84.2405 27.6481 88.8303 24.9482 92.8262C23.0619 95.5425 20.9897 97.8097 18.7344 99.6299H62.6943C67.122 99.6299 70.2539 99.4685 72.0898 99.1445C74.0338 98.8205 75.1682 98.0099 75.4922 96.7139C75.9241 95.3098 76.1396 92.9877 76.1396 89.748V76.1943H86.6699V90.0723ZM100.764 1.94434C100.98 1.94434 101.088 2.26823 101.088 2.91602C101.088 3.56401 100.98 3.88867 100.764 3.88867C96.7678 3.88868 93.7434 4.21236 91.6914 4.86035C89.6397 5.40039 88.2896 6.4807 87.6416 8.10059C86.9937 9.61259 86.6699 11.9346 86.6699 15.0664V37.1943H76.1396V15.3906C76.1396 12.0431 75.9241 9.72091 75.4922 8.4248C75.1682 7.02085 74.142 6.21017 72.4141 5.99414C70.6861 5.67014 67.7159 5.50879 63.5039 5.50879H55.5654C52.4337 5.50884 50.1656 5.99484 48.7617 6.9668C47.3579 7.93886 46.4398 9.77482 46.0078 12.4746C45.5758 15.1745 45.1439 19.1703 44.7119 24.4619C44.4959 26.4059 44.1181 29.3762 43.5781 33.3721C43.4128 34.5956 43.2199 35.8696 43.0039 37.1943H38.3564C38.6824 35.0519 38.9658 32.968 39.2041 30.9424C39.8521 25.3265 40.1758 20.6286 40.1758 16.8486C40.1758 14.2566 39.8521 11.9879 39.2041 10.0439C38.5561 8.10015 37.0437 6.58873 34.668 5.50879C32.4 4.42882 28.7281 3.88871 23.6523 3.88867C23.4363 3.88867 23.3281 3.56401 23.3281 2.91602C23.3282 2.26823 23.4364 1.94434 23.6523 1.94434H100.764Z" fill="#8B1111"></path><path d="M169.414 82.6201C166.714 89.2079 166.552 93.96 168.928 96.876C171.304 99.7919 176.002 101.25 183.021 101.25C183.561 101.25 183.832 101.575 183.832 102.223C183.832 102.87 183.561 103.194 183.021 103.194C179.782 103.194 176.812 103.086 174.112 102.87C171.412 102.654 168.01 102.546 163.906 102.546C160.018 102.546 156.886 102.654 154.51 102.87C152.242 103.086 149.434 103.194 146.086 103.194C145.654 103.194 145.438 102.87 145.438 102.223C145.438 101.575 145.654 101.25 146.086 101.25C149.002 101.25 151.54 100.71 153.7 99.6299C155.86 98.4419 157.858 96.4443 159.693 93.6367C161.637 90.7207 163.744 86.5621 166.012 81.1621L168.116 76.1943H172.13L169.414 82.6201ZM240.532 81C243.016 86.292 245.23 90.4506 247.174 93.4746C249.118 96.3904 251.008 98.4419 252.844 99.6299C254.788 100.71 256.894 101.25 259.162 101.25C259.594 101.25 259.81 101.575 259.81 102.223C259.809 102.87 259.594 103.194 259.162 103.194C256.03 103.194 252.844 103.086 249.604 102.87C246.364 102.654 243.232 102.546 240.208 102.546C236.86 102.546 233.944 102.654 231.46 102.87C228.976 103.086 226.222 103.194 223.198 103.194C222.766 103.194 222.55 102.87 222.55 102.223C222.55 101.575 222.766 101.25 223.198 101.25C228.922 101.25 232.486 100.44 233.89 98.8203C235.294 97.0924 234.916 93.9065 232.756 89.2627L226.57 76.1943H238.25L240.532 81ZM201.328 0C201.868 5.91136e-05 202.192 0.162395 202.3 0.486328L219.73 37.1943H208.109L197.81 15.4346L188.613 37.1943H184.641L200.193 0.486328C200.409 0.162326 200.788 0 201.328 0Z" fill="#8B1111"></path><path d="M42.2158 58.2367L42.4684 57.6272H45.9377L46.0556 58.2367H42.2158ZM50.4007 67.4953C50.4456 67.4953 50.468 67.5533 50.468 67.6694C50.468 67.7855 50.4456 67.8436 50.4007 67.8436C50.0751 67.8436 49.7438 67.8242 49.407 67.7855C49.0702 67.7468 48.7446 67.7275 48.4302 67.7275C48.0822 67.7275 47.779 67.7468 47.5208 67.7855C47.2626 67.8242 46.9763 67.8436 46.6619 67.8436C46.617 67.8436 46.5945 67.7855 46.5945 67.6694C46.5945 67.5533 46.617 67.4953 46.6619 67.4953C47.257 67.4953 47.6275 67.3501 47.7734 67.0599C47.9194 66.7503 47.8801 66.1795 47.6555 65.3475L43.9168 51.7354L44.3378 50.8357L41.0706 64.1575C40.7899 65.3378 40.7731 66.1892 41.0201 66.7116C41.2671 67.2341 41.7555 67.4953 42.4853 67.4953C42.5414 67.4953 42.5695 67.5533 42.5695 67.6694C42.5695 67.7855 42.5414 67.8436 42.4853 67.8436C42.1485 67.8436 41.8397 67.8242 41.559 67.7855C41.2783 67.7468 40.9247 67.7275 40.498 67.7275C40.0938 67.7275 39.7682 67.7468 39.5212 67.7855C39.2855 67.8242 38.9935 67.8436 38.6455 67.8436C38.6006 67.8436 38.5781 67.7855 38.5781 67.6694C38.5781 67.5533 38.6006 67.4953 38.6455 67.4953C38.9486 67.4953 39.2125 67.3985 39.437 67.205C39.6616 66.9922 39.8693 66.6342 40.0602 66.1312C40.2622 65.6087 40.4812 64.8638 40.717 63.8963L44.2705 49.4425C44.2929 49.3845 44.3322 49.3555 44.3883 49.3555C44.4445 49.3555 44.4782 49.3845 44.4894 49.4425L48.4639 63.8673C48.7221 64.8154 48.9523 65.5604 49.1544 66.1021C49.3565 66.6246 49.553 66.9922 49.7438 67.205C49.9459 67.3985 50.1649 67.4953 50.4007 67.4953Z" fill="#8B1111"></path><path d="M60.07 52.1127C60.07 51.5516 60.0363 51.1259 59.969 50.8357C59.9016 50.5454 59.7613 50.3423 59.5479 50.2262C59.3458 50.1101 59.0259 50.052 58.588 50.052C58.5543 50.052 58.5375 49.994 58.5375 49.8779C58.5375 49.7618 58.5543 49.7038 58.588 49.7038C58.8574 49.7038 59.1606 49.7231 59.4974 49.7618C59.8342 49.7811 60.2104 49.7908 60.6258 49.7908C60.9963 49.7908 61.3556 49.7811 61.7036 49.7618C62.0517 49.7231 62.3548 49.7038 62.613 49.7038C62.6467 49.7038 62.6636 49.7618 62.6636 49.8779C62.6636 49.994 62.6467 50.052 62.613 50.052C62.1976 50.052 61.8832 50.1101 61.6699 50.2262C61.4566 50.3229 61.3163 50.5164 61.2489 50.8067C61.1815 51.0775 61.1478 51.4935 61.1478 52.0547V65.4926C61.1478 66.0538 61.1815 66.4794 61.2489 66.7697C61.3163 67.0599 61.4566 67.2534 61.6699 67.3501C61.8832 67.4469 62.1976 67.4953 62.613 67.4953C62.6467 67.4953 62.6636 67.5533 62.6636 67.6694C62.6636 67.7855 62.6467 67.8436 62.613 67.8436C62.3548 67.8436 62.0517 67.8339 61.7036 67.8145C61.3556 67.7952 60.9963 67.7855 60.6258 67.7855C60.2104 67.7855 59.8342 67.7952 59.4974 67.8145C59.1606 67.8339 58.8574 67.8436 58.588 67.8436C58.5543 67.8436 58.5375 67.7855 58.5375 67.6694C58.5375 67.5533 58.5543 67.4953 58.588 67.4953C59.0259 67.4953 59.3458 67.4469 59.5479 67.3501C59.7613 67.2534 59.9016 67.0599 59.969 66.7697C60.0363 66.4794 60.07 66.0538 60.07 65.4926V52.1127ZM53.0135 58.7011V58.0916H60.5416V58.7011H53.0135ZM52.5251 65.4926V52.0547C52.5251 51.4935 52.4859 51.0775 52.4073 50.8067C52.3399 50.5164 52.1996 50.3229 51.9862 50.2262C51.7841 50.1101 51.4754 50.052 51.06 50.052C51.0375 50.052 51.0263 49.994 51.0263 49.8779C51.0263 49.7618 51.0375 49.7038 51.06 49.7038C51.3294 49.7038 51.6326 49.7231 51.9694 49.7618C52.3174 49.7811 52.6767 49.7908 53.0472 49.7908C53.4626 49.7908 53.8388 49.7811 54.1756 49.7618C54.5124 49.7231 54.8156 49.7038 55.085 49.7038C55.1075 49.7038 55.1187 49.7618 55.1187 49.8779C55.1187 49.994 55.1075 50.052 55.085 50.052C54.6696 50.052 54.3552 50.1101 54.1419 50.2262C53.9286 50.3423 53.7826 50.5454 53.704 50.8357C53.6367 51.1259 53.603 51.5516 53.603 52.1127V65.4926C53.603 66.0538 53.6367 66.4794 53.704 66.7697C53.7714 67.0599 53.9117 67.2534 54.1251 67.3501C54.3496 67.4469 54.6696 67.4953 55.085 67.4953C55.1075 67.4953 55.1187 67.5533 55.1187 67.6694C55.1187 67.7855 55.1075 67.8436 55.085 67.8436C54.8043 67.8436 54.4956 67.8339 54.1587 67.8145C53.8331 67.7952 53.4626 67.7855 53.0472 67.7855C52.6767 67.7855 52.3174 67.7952 51.9694 67.8145C51.6213 67.8339 51.3126 67.8436 51.0431 67.8436C51.0207 67.8436 51.0094 67.7855 51.0094 67.6694C51.0094 67.5533 51.0207 67.4953 51.0431 67.4953C51.4585 67.4953 51.7729 67.4469 51.9862 67.3501C52.1996 67.2534 52.3399 67.0599 52.4073 66.7697C52.4859 66.4794 52.5251 66.0538 52.5251 65.4926Z" fill="#8B1111"></path><path d="M66.0114 65.7538L65.7251 65.2895L73.1352 51.6774L73.4047 52.1127L66.0114 65.7538ZM63.822 67.8436C63.7996 67.8436 63.7884 67.7855 63.7884 67.6694C63.7884 67.5533 63.7996 67.4953 63.822 67.4953C64.2375 67.4953 64.5518 67.4469 64.7652 67.3501C64.9785 67.2534 65.1188 67.0599 65.1862 66.7697C65.2648 66.4794 65.3041 66.0538 65.3041 65.4926V52.0547C65.3041 51.4935 65.2648 51.0775 65.1862 50.8067C65.1188 50.5164 64.9785 50.3229 64.7652 50.2262C64.5631 50.1101 64.2543 50.052 63.8389 50.052C63.8164 50.052 63.8052 49.994 63.8052 49.8779C63.8052 49.7618 63.8164 49.7038 63.8389 49.7038C64.1083 49.7038 64.4115 49.7231 64.7483 49.7618C65.0964 49.7811 65.4556 49.7908 65.8262 49.7908C66.2416 49.7908 66.6177 49.7811 66.9545 49.7618C67.2913 49.7231 67.5945 49.7038 67.8639 49.7038C67.8864 49.7038 67.8976 49.7618 67.8976 49.8779C67.8976 49.994 67.8864 50.052 67.8639 50.052C67.4485 50.052 67.1342 50.1101 66.9208 50.2262C66.7075 50.3423 66.5616 50.5454 66.483 50.8357C66.4156 51.1259 66.3819 51.5516 66.3819 52.1127V65.4926C66.3819 66.0538 66.4156 66.4794 66.483 66.7697C66.5503 67.0599 66.6907 67.2534 66.904 67.3501C67.1285 67.4469 67.4485 67.4953 67.8639 67.4953C67.8864 67.4953 67.8976 67.5533 67.8976 67.6694C67.8976 67.7855 67.8864 67.8436 67.8639 67.8436C67.5833 67.8436 67.2745 67.8339 66.9377 67.8145C66.6121 67.7952 66.2416 67.7855 65.8262 67.7855C65.4556 67.7855 65.0964 67.7952 64.7483 67.8145C64.4003 67.8339 64.0915 67.8436 63.822 67.8436ZM71.1648 67.8436C71.1424 67.8436 71.1311 67.7855 71.1311 67.6694C71.1311 67.5533 71.1424 67.4953 71.1648 67.4953C71.6027 67.4953 71.9227 67.4469 72.1248 67.3501C72.3381 67.2534 72.4784 67.0599 72.5458 66.7697C72.6132 66.4794 72.6468 66.0538 72.6468 65.4926V52.1127C72.6468 51.5516 72.6132 51.1259 72.5458 50.8357C72.4784 50.5454 72.3381 50.3423 72.1248 50.2262C71.9227 50.1101 71.6027 50.052 71.1648 50.052C71.1424 50.052 71.1311 49.994 71.1311 49.8779C71.1311 49.7618 71.1424 49.7038 71.1648 49.7038C71.4455 49.7038 71.7486 49.7231 72.0742 49.7618C72.4111 49.7811 72.7872 49.7908 73.2026 49.7908C73.5731 49.7908 73.9324 49.7811 74.2804 49.7618C74.6285 49.7231 74.9372 49.7038 75.2067 49.7038C75.2292 49.7038 75.2404 49.7618 75.2404 49.8779C75.2404 49.994 75.2292 50.052 75.2067 50.052C74.7913 50.052 74.4769 50.1101 74.2636 50.2262C74.0503 50.3229 73.9099 50.5164 73.8426 50.8067C73.7752 51.0775 73.7415 51.4935 73.7415 52.0547V65.4926C73.7415 66.0538 73.7752 66.4794 73.8426 66.7697C73.9099 67.0599 74.0503 67.2534 74.2636 67.3501C74.4769 67.4469 74.7913 67.4953 75.2067 67.4953C75.2292 67.4953 75.2404 67.5533 75.2404 67.6694C75.2404 67.7855 75.2292 67.8436 75.2067 67.8436C74.9372 67.8436 74.6285 67.8339 74.2804 67.8145C73.9324 67.7952 73.5731 67.7855 73.2026 67.7855C72.7872 67.7855 72.4111 67.7952 72.0742 67.8145C71.7486 67.8339 71.4455 67.8436 71.1648 67.8436Z" fill="#8B1111"></path><path d="M78.593 65.7538L78.3067 65.2895L85.7168 51.6774L85.9863 52.1127L78.593 65.7538ZM76.4036 67.8436C76.3812 67.8436 76.3699 67.7855 76.3699 67.6694C76.3699 67.5533 76.3812 67.4953 76.4036 67.4953C76.819 67.4953 77.1334 67.4469 77.3467 67.3501C77.56 67.2534 77.7004 67.0599 77.7678 66.7697C77.8463 66.4794 77.8856 66.0538 77.8856 65.4926V52.0547C77.8856 51.4935 77.8463 51.0775 77.7678 50.8067C77.7004 50.5164 77.56 50.3229 77.3467 50.2262C77.1446 50.1101 76.8359 50.052 76.4205 50.052C76.398 50.052 76.3868 49.994 76.3868 49.8779C76.3868 49.7618 76.398 49.7038 76.4205 49.7038C76.6899 49.7038 76.9931 49.7231 77.3299 49.7618C77.6779 49.7811 78.0372 49.7908 78.4077 49.7908C78.8231 49.7908 79.1993 49.7811 79.5361 49.7618C79.8729 49.7231 80.176 49.7038 80.4455 49.7038C80.468 49.7038 80.4792 49.7618 80.4792 49.8779C80.4792 49.994 80.468 50.052 80.4455 50.052C80.0301 50.052 79.7157 50.1101 79.5024 50.2262C79.2891 50.3423 79.1431 50.5454 79.0645 50.8357C78.9972 51.1259 78.9635 51.5516 78.9635 52.1127V65.4926C78.9635 66.0538 78.9972 66.4794 79.0645 66.7697C79.1319 67.0599 79.2722 67.2534 79.4856 67.3501C79.7101 67.4469 80.0301 67.4953 80.4455 67.4953C80.468 67.4953 80.4792 67.5533 80.4792 67.6694C80.4792 67.7855 80.468 67.8436 80.4455 67.8436C80.1648 67.8436 79.8561 67.8339 79.5192 67.8145C79.1936 67.7952 78.8231 67.7855 78.4077 67.7855C78.0372 67.7855 77.6779 67.7952 77.3299 67.8145C76.9818 67.8339 76.6731 67.8436 76.4036 67.8436ZM83.7464 67.8436C83.7239 67.8436 83.7127 67.7855 83.7127 67.6694C83.7127 67.5533 83.7239 67.4953 83.7464 67.4953C84.1843 67.4953 84.5042 67.4469 84.7063 67.3501C84.9197 67.2534 85.06 67.0599 85.1274 66.7697C85.1947 66.4794 85.2284 66.0538 85.2284 65.4926V52.1127C85.2284 51.5516 85.1947 51.1259 85.1274 50.8357C85.06 50.5454 84.9197 50.3423 84.7063 50.2262C84.5042 50.1101 84.1843 50.052 83.7464 50.052C83.7239 50.052 83.7127 49.994 83.7127 49.8779C83.7127 49.7618 83.7239 49.7038 83.7464 49.7038C84.0271 49.7038 84.3302 49.7231 84.6558 49.7618C84.9926 49.7811 85.3688 49.7908 85.7842 49.7908C86.1547 49.7908 86.514 49.7811 86.862 49.7618C87.2101 49.7231 87.5188 49.7038 87.7883 49.7038C87.8107 49.7038 87.822 49.7618 87.822 49.8779C87.822 49.994 87.8107 50.052 87.7883 50.052C87.3729 50.052 87.0585 50.1101 86.8452 50.2262C86.6318 50.3229 86.4915 50.5164 86.4241 50.8067C86.3568 51.0775 86.3231 51.4935 86.3231 52.0547V65.4926C86.3231 66.0538 86.3568 66.4794 86.4241 66.7697C86.4915 67.0599 86.6318 67.2534 86.8452 67.3501C87.0585 67.4469 87.3729 67.4953 87.7883 67.4953C87.8107 67.4953 87.822 67.5533 87.822 67.6694C87.822 67.7855 87.8107 67.8436 87.7883 67.8436C87.5188 67.8436 87.2101 67.8339 86.862 67.8145C86.514 67.7952 86.1547 67.7855 85.7842 67.7855C85.3688 67.7855 84.9926 67.7952 84.6558 67.8145C84.3302 67.8339 84.0271 67.8436 83.7464 67.8436Z" fill="#8B1111"></path><path d="M89.3557 68.1918C89.1199 68.1918 88.9234 68.1048 88.7662 67.9306C88.6091 67.7565 88.5305 67.4856 88.5305 67.118C88.5305 66.7697 88.6034 66.5278 88.7494 66.3924C88.8954 66.2569 89.0638 66.1892 89.2546 66.1892C89.3108 66.1892 89.3669 66.1892 89.4231 66.1892C89.4904 66.1892 89.5522 66.1892 89.6083 66.1892C90.0125 66.1892 90.3774 65.9086 90.703 65.3475C91.0286 64.767 91.3149 64.0028 91.5619 63.0546C91.8089 62.0872 92.0166 61.0133 92.185 59.833C92.3534 58.6334 92.4769 57.4144 92.5555 56.176C92.6453 54.9377 92.6903 53.7574 92.6903 52.6351C92.6903 52.1127 92.651 51.658 92.5724 51.271C92.4938 50.8647 92.3366 50.5648 92.1008 50.3713C91.865 50.1585 91.5058 50.052 91.023 50.052C90.9893 50.052 90.9724 49.994 90.9724 49.8779C90.9724 49.7618 90.9893 49.7038 91.023 49.7038C91.0903 49.7038 91.2812 49.7038 91.5956 49.7038C91.9099 49.7038 92.3029 49.7038 92.7745 49.7038C93.246 49.7038 93.7512 49.7038 94.2902 49.7038C94.8403 49.7038 95.3848 49.7038 95.9238 49.7038C96.4739 49.7038 96.9791 49.7038 97.4395 49.7038C97.8998 49.7038 98.2759 49.7038 98.5678 49.7038C98.8597 49.7038 99.0282 49.7038 99.0731 49.7038C99.1068 49.7038 99.1236 49.7618 99.1236 49.8779C99.1236 49.994 99.1068 50.052 99.0731 50.052C98.6577 50.052 98.3433 50.1101 98.13 50.2262C97.9166 50.3229 97.7763 50.5164 97.7089 50.8067C97.6416 51.0775 97.6079 51.4935 97.6079 52.0547V65.4926C97.6079 66.0538 97.6416 66.4794 97.7089 66.7697C97.7763 67.0599 97.9166 67.2534 98.13 67.3501C98.3433 67.4469 98.6577 67.4953 99.0731 67.4953C99.1068 67.4953 99.1236 67.5533 99.1236 67.6694C99.1236 67.7855 99.1068 67.8436 99.0731 67.8436C98.8148 67.8436 98.5117 67.8339 98.1636 67.8145C97.8156 67.7952 97.4563 67.7855 97.0858 67.7855C96.6928 67.7855 96.3223 67.7952 95.9743 67.8145C95.6375 67.8339 95.3343 67.8436 95.0649 67.8436C95.0312 67.8436 95.0143 67.7855 95.0143 67.6694C95.0143 67.5533 95.0312 67.4953 95.0649 67.4953C95.4915 67.4953 95.8059 67.4469 96.008 67.3501C96.2213 67.2534 96.3616 67.0599 96.429 66.7697C96.4964 66.4794 96.53 66.0538 96.53 65.4926V52.1708C96.53 51.5709 96.5076 51.1453 96.4627 50.8937C96.4178 50.6422 96.2999 50.4971 96.109 50.4584C95.9294 50.4003 95.6262 50.3713 95.1996 50.3713H94.3407C94.0375 50.3713 93.7905 50.4197 93.5997 50.5164C93.42 50.6132 93.2909 50.826 93.2123 51.1549C93.1337 51.4645 93.0944 51.9579 93.0944 52.6351C93.0944 53.4091 93.072 54.3282 93.0271 55.3924C92.9822 56.4566 92.9036 57.5788 92.7913 58.7591C92.679 59.9201 92.5331 61.0617 92.3534 62.1839C92.1738 63.2868 91.9436 64.293 91.6629 65.2024C91.3935 66.1118 91.0679 66.8374 90.6861 67.3792C90.3044 67.9209 89.8609 68.1918 89.3557 68.1918Z" fill="#8B1111"></path><path d="M43.3891 46.2691C43.3622 46.4036 43.0662 46.3498 42.5011 46.4844C41.6131 46.6996 40.3753 47.5069 39.7295 48.072C41.4786 49.6058 42.2051 51.8662 42.2051 53.7229C42.2051 55.472 41.7207 57.0596 40.7789 58.4589C39.8371 59.8313 38.8415 60.9345 37.7382 61.7687C35.6931 63.3026 32.4371 64.4327 28.1316 64.4058C26.3556 64.3789 24.6335 64.2444 22.992 63.9753C21.3505 63.7062 19.9782 63.5178 18.8211 63.3833C19.8167 65.9396 21.9425 67.5004 25.4945 67.5004C27.136 67.5004 28.4276 67.016 28.9927 66.6124C29.2349 66.4778 29.3964 66.3433 29.504 66.3702C29.6385 66.5047 29.3964 66.6931 29.2618 66.8007C28.6429 67.2582 27.2167 67.8233 25.3869 67.8233C21.7273 67.8233 19.4938 66.1818 18.3367 63.464C18.0138 63.4909 17.0182 64.0291 15.9149 64.0291C15.4036 64.0291 15 63.8946 15 63.5716C15 63.2218 15.2422 63.0066 15.6996 62.8989C16.1571 62.7644 16.5876 62.7105 17.0182 62.7105C17.4487 62.7105 17.9062 62.7913 18.1484 62.8182C17.9331 62.0378 17.7716 61.096 17.7716 59.9389C17.7716 55.8756 19.6015 52.2967 22.8036 49.7135C25.4138 47.5607 28.9927 46 33.0022 46C36.2313 46 38.0073 46.7804 39.2989 47.7222C39.6218 47.48 40.0793 47.184 40.6713 46.8611C41.2633 46.5382 41.8015 46.3229 42.3127 46.2153C42.7702 46.1076 43.416 46.0807 43.3891 46.2691ZM38.976 47.9644C37.9265 47.184 36.2313 46.4575 33.5404 46.4575C31.4953 46.4575 29.5847 46.8611 27.8087 47.6953C26.0596 48.5295 24.6065 49.4175 23.4495 50.3593C20.4356 52.8349 18.2829 56.1985 18.2829 59.9389C18.2829 61.0422 18.3367 62.0109 18.6327 62.872C20.7047 62.9527 22.6691 62.4146 24.5258 61.2575C26.3825 60.1004 28.5084 58.2436 30.8495 55.6873C32.1949 54.2611 33.5673 52.8349 34.9396 51.4356C36.3389 50.0364 37.6844 48.8793 38.976 47.9644ZM37.1193 60.6385C38.1149 59.7236 39.0298 58.5935 39.864 57.2211C40.6982 55.8487 41.1287 54.3149 41.1287 52.6735C41.1287 50.736 40.4022 49.2022 39.4066 48.3142C38.1149 49.4982 36.8771 50.8167 35.72 52.2698C34.5629 53.7229 33.5404 54.9338 32.6793 55.9025C30.0691 58.8356 27.728 60.7462 25.6829 61.6342C23.6647 62.5222 21.8349 63.0066 20.2204 63.1142C21.1891 63.3026 22.4269 63.4909 23.9607 63.6793C25.4945 63.8676 26.8938 63.9484 28.1585 63.9484C30.5535 63.9484 32.4909 63.5716 33.9171 62.7913C35.3433 62.0109 36.4196 61.2844 37.1193 60.6385Z" fill="#8B1111"></path><path d="M206.876 51.9817C206.876 51.3925 206.839 50.9456 206.765 50.6409C206.691 50.3362 206.537 50.1229 206.302 50.001C206.08 49.8792 205.728 49.8182 205.247 49.8182C205.21 49.8182 205.191 49.7573 205.191 49.6354C205.191 49.5135 205.21 49.4526 205.247 49.4526C205.543 49.4526 205.876 49.4729 206.247 49.5135C206.617 49.5338 207.031 49.544 207.487 49.544C207.895 49.544 208.29 49.5338 208.672 49.5135C209.055 49.4729 209.388 49.4526 209.672 49.4526C209.709 49.4526 209.728 49.5135 209.728 49.6354C209.728 49.7573 209.709 49.8182 209.672 49.8182C209.216 49.8182 208.87 49.8792 208.635 50.001C208.401 50.1026 208.246 50.3058 208.172 50.6105C208.098 50.8949 208.061 51.3316 208.061 51.9207V66.0288C208.061 66.6179 208.098 67.0648 208.172 67.3695C208.246 67.6742 208.401 67.8773 208.635 67.9789C208.87 68.0805 209.216 68.1312 209.672 68.1312C209.709 68.1312 209.728 68.1922 209.728 68.3141C209.728 68.436 209.709 68.4969 209.672 68.4969C209.388 68.4969 209.055 68.4867 208.672 68.4664C208.29 68.4461 207.895 68.436 207.487 68.436C207.031 68.436 206.617 68.4461 206.247 68.4664C205.876 68.4867 205.543 68.4969 205.247 68.4969C205.21 68.4969 205.191 68.436 205.191 68.3141C205.191 68.1922 205.21 68.1312 205.247 68.1312C205.728 68.1312 206.08 68.0805 206.302 67.9789C206.537 67.8773 206.691 67.6742 206.765 67.3695C206.839 67.0648 206.876 66.6179 206.876 66.0288V51.9817ZM199.118 58.8986V58.2587H207.395V58.8986H199.118ZM198.581 66.0288V51.9207C198.581 51.3316 198.537 50.8949 198.451 50.6105C198.377 50.3058 198.223 50.1026 197.988 50.001C197.766 49.8792 197.426 49.8182 196.97 49.8182C196.945 49.8182 196.933 49.7573 196.933 49.6354C196.933 49.5135 196.945 49.4526 196.97 49.4526C197.266 49.4526 197.599 49.4729 197.97 49.5135C198.352 49.5338 198.747 49.544 199.155 49.544C199.611 49.544 200.025 49.5338 200.395 49.5135C200.766 49.4729 201.099 49.4526 201.395 49.4526C201.42 49.4526 201.432 49.5135 201.432 49.6354C201.432 49.7573 201.42 49.8182 201.395 49.8182C200.938 49.8182 200.593 49.8792 200.358 50.001C200.124 50.1229 199.963 50.3362 199.877 50.6409C199.803 50.9456 199.766 51.3925 199.766 51.9817V66.0288C199.766 66.6179 199.803 67.0648 199.877 67.3695C199.951 67.6742 200.105 67.8773 200.34 67.9789C200.587 68.0805 200.938 68.1312 201.395 68.1312C201.42 68.1312 201.432 68.1922 201.432 68.3141C201.432 68.436 201.42 68.4969 201.395 68.4969C201.087 68.4969 200.747 68.4867 200.377 68.4664C200.019 68.4461 199.611 68.436 199.155 68.436C198.747 68.436 198.352 68.4461 197.97 68.4664C197.587 68.4867 197.247 68.4969 196.951 68.4969C196.926 68.4969 196.914 68.436 196.914 68.3141C196.914 68.1922 196.926 68.1312 196.951 68.1312C197.408 68.1312 197.754 68.0805 197.988 67.9789C198.223 67.8773 198.377 67.6742 198.451 67.3695C198.537 67.0648 198.581 66.6179 198.581 66.0288Z" fill="#8B1111"></path><path d="M220.556 51.9817C220.556 51.3925 220.519 50.9456 220.445 50.6409C220.371 50.3362 220.217 50.1229 219.982 50.001C219.76 49.8792 219.408 49.8182 218.927 49.8182C218.89 49.8182 218.871 49.7573 218.871 49.6354C218.871 49.5135 218.89 49.4526 218.927 49.4526C219.223 49.4526 219.556 49.4729 219.927 49.5135C220.297 49.5338 220.711 49.544 221.167 49.544C221.575 49.544 221.97 49.5338 222.353 49.5135C222.735 49.4729 223.069 49.4526 223.352 49.4526C223.39 49.4526 223.408 49.5135 223.408 49.6354C223.408 49.7573 223.39 49.8182 223.352 49.8182C222.896 49.8182 222.55 49.8792 222.316 50.001C222.081 50.1026 221.927 50.3058 221.853 50.6105C221.779 50.8949 221.742 51.3316 221.742 51.9207V66.0288C221.742 66.6179 221.779 67.0648 221.853 67.3695C221.927 67.6742 222.081 67.8773 222.316 67.9789C222.55 68.0805 222.896 68.1312 223.352 68.1312C223.39 68.1312 223.408 68.1922 223.408 68.3141C223.408 68.436 223.39 68.4969 223.352 68.4969C223.069 68.4969 222.735 68.4867 222.353 68.4664C221.97 68.4461 221.575 68.436 221.167 68.436C220.711 68.436 220.297 68.4461 219.927 68.4664C219.556 68.4867 219.223 68.4969 218.927 68.4969C218.89 68.4969 218.871 68.436 218.871 68.3141C218.871 68.1922 218.89 68.1312 218.927 68.1312C219.408 68.1312 219.76 68.0805 219.982 67.9789C220.217 67.8773 220.371 67.6742 220.445 67.3695C220.519 67.0648 220.556 66.6179 220.556 66.0288V51.9817ZM212.798 58.8986V58.2587H221.075V58.8986H212.798ZM212.261 66.0288V51.9207C212.261 51.3316 212.218 50.8949 212.131 50.6105C212.057 50.3058 211.903 50.1026 211.668 50.001C211.446 49.8792 211.107 49.8182 210.65 49.8182C210.625 49.8182 210.613 49.7573 210.613 49.6354C210.613 49.5135 210.625 49.4526 210.65 49.4526C210.946 49.4526 211.279 49.4729 211.65 49.5135C212.032 49.5338 212.427 49.544 212.835 49.544C213.292 49.544 213.705 49.5338 214.075 49.5135C214.446 49.4729 214.779 49.4526 215.075 49.4526C215.1 49.4526 215.112 49.5135 215.112 49.6354C215.112 49.7573 215.1 49.8182 215.075 49.8182C214.619 49.8182 214.273 49.8792 214.038 50.001C213.804 50.1229 213.643 50.3362 213.557 50.6409C213.483 50.9456 213.446 51.3925 213.446 51.9817V66.0288C213.446 66.6179 213.483 67.0648 213.557 67.3695C213.631 67.6742 213.785 67.8773 214.02 67.9789C214.267 68.0805 214.619 68.1312 215.075 68.1312C215.1 68.1312 215.112 68.1922 215.112 68.3141C215.112 68.436 215.1 68.4969 215.075 68.4969C214.767 68.4969 214.427 68.4867 214.057 68.4664C213.699 68.4461 213.292 68.436 212.835 68.436C212.427 68.436 212.032 68.4461 211.65 68.4664C211.267 68.4867 210.928 68.4969 210.631 68.4969C210.607 68.4969 210.594 68.436 210.594 68.3141C210.594 68.1922 210.607 68.1312 210.631 68.1312C211.088 68.1312 211.434 68.0805 211.668 67.9789C211.903 67.8773 212.057 67.6742 212.131 67.3695C212.218 67.0648 212.261 66.6179 212.261 66.0288Z" fill="#8B1111"></path><path d="M227.607 58.411L227.885 57.7711H231.7L231.829 58.411H227.607ZM236.607 68.1312C236.656 68.1312 236.681 68.1922 236.681 68.3141C236.681 68.436 236.656 68.4969 236.607 68.4969C236.249 68.4969 235.885 68.4766 235.514 68.436C235.144 68.3953 234.786 68.375 234.44 68.375C234.058 68.375 233.724 68.3953 233.44 68.436C233.156 68.4766 232.842 68.4969 232.496 68.4969C232.447 68.4969 232.422 68.436 232.422 68.3141C232.422 68.1922 232.447 68.1312 232.496 68.1312C233.15 68.1312 233.558 67.9789 233.718 67.6742C233.879 67.3492 233.835 66.7499 233.589 65.8764L229.478 51.5855L229.941 50.6409L226.348 64.6271C226.04 65.8662 226.021 66.7601 226.293 67.3085C226.564 67.857 227.101 68.1312 227.904 68.1312C227.965 68.1312 227.996 68.1922 227.996 68.3141C227.996 68.436 227.965 68.4969 227.904 68.4969C227.533 68.4969 227.194 68.4766 226.885 68.436C226.577 68.3953 226.188 68.375 225.719 68.375C225.274 68.375 224.916 68.3953 224.645 68.436C224.386 68.4766 224.065 68.4969 223.682 68.4969C223.633 68.4969 223.608 68.436 223.608 68.3141C223.608 68.1922 223.633 68.1312 223.682 68.1312C224.015 68.1312 224.305 68.0297 224.552 67.8265C224.799 67.6031 225.027 67.2273 225.237 66.6991C225.46 66.1506 225.7 65.3685 225.959 64.3528L229.867 49.1783C229.891 49.1174 229.934 49.0869 229.996 49.0869C230.058 49.0869 230.095 49.1174 230.107 49.1783L234.477 64.3224C234.761 65.3178 235.014 66.0998 235.237 66.6686C235.459 67.2171 235.675 67.6031 235.885 67.8265C236.107 68.0297 236.348 68.1312 236.607 68.1312Z" fill="#8B1111"></path><path d="M204.505 50.142C204.505 50.1709 204.448 50.3442 204.188 50.2286C203.812 50.0843 203.408 50.0554 203.09 50.0554C202.224 50.0554 201.011 50.6041 199.452 51.7303C197.921 52.8566 196.246 54.2716 194.456 55.9754C193.214 57.1594 191.857 58.7189 190.326 60.6826C188.825 62.6174 187.756 64.0902 187.121 65.101C186.226 66.516 185.763 67.4112 185.301 67.2668C185.07 67.2379 184.984 67.0358 184.984 66.7181C184.984 65.794 186.023 64.0902 187.669 61.78C188.045 61.058 188.218 60.3072 188.218 59.7007C188.218 59.0365 188.045 58.459 187.727 57.968C185.648 60.0184 183.858 61.6933 182.211 63.0506C179.295 65.5052 176.753 67.0936 174.645 67.8444C172.537 68.6241 170.776 68.9995 169.418 68.9995C168.379 68.9995 167.368 68.7685 166.415 68.2776C165.462 67.7866 165 66.8625 165 65.4475C165 64.1191 165.52 62.7041 166.531 61.1735C167.57 59.643 169.043 58.2857 170.949 57.1306C173.259 55.7155 176.263 54.878 178.602 54.6181C178.226 54.3582 177.937 53.694 177.937 52.9721C177.937 51.1816 179.035 49.7666 181.201 48.727C183.395 47.6585 185.937 47.1387 188.796 47.1387C191.597 47.1387 193.994 47.3408 195.986 47.774C197.979 48.2072 199.769 48.6115 201.358 49.0446C201.849 49.189 203.321 49.5644 204.159 49.911C204.419 49.9976 204.505 50.0554 204.505 50.142ZM179.006 54.5893C179.352 54.5604 179.959 54.5315 180.305 54.5315C183.453 54.5315 185.994 55.4267 187.381 56.8995C189.344 55.2535 191.568 53.7229 193.878 52.4523C196.882 50.8062 199.827 49.8532 202.253 49.7088C200.867 49.3912 198.99 49.0446 196.622 48.6981C194.254 48.3227 191.626 48.1494 188.767 48.1494C185.937 48.1494 183.482 48.6115 181.403 49.5356C179.324 50.4597 178.284 51.6437 178.284 53.0876C178.284 53.8096 178.631 54.3871 179.006 54.5893ZM201.82 50.0265C199.394 50.2864 196.564 51.5859 193.994 53.1165C191.712 54.5315 189.662 56.1776 188.016 57.7081C188.391 58.2568 188.651 58.9499 188.651 59.6718C188.651 60.0184 188.594 60.3649 188.478 60.7403C190.413 58.3146 192.29 56.4952 194.023 54.9647C196.824 52.4234 199.423 50.6329 201.82 50.0265ZM187.092 57.1594C185.706 55.8599 183.28 55.0802 180.623 55.0802C179.439 55.0802 177.966 55.3401 176.234 55.8599C174.53 56.3508 172.97 57.0439 171.584 57.9391C167.772 60.336 165.462 62.9351 165.462 65.4764C165.462 66.7759 165.895 67.6422 166.762 68.0465C167.628 68.4508 168.494 68.653 169.389 68.653C172.768 68.653 176.638 66.3138 181.605 62.0399C183.251 60.5671 185.013 58.8632 187.092 57.1594Z" fill="#8B1111"></path><path d="M131.295 50.6383C131.295 49.6809 131.104 48.9362 130.723 48.4043C130.341 47.8723 129.817 47.6064 129.149 47.6064C128.498 47.6064 127.989 47.8723 127.624 48.4043C127.274 48.9362 127.099 49.7553 127.099 50.8617C127.099 52.9468 127.703 55.1064 128.911 57.3404C130.135 59.5532 131.716 61.6383 133.655 63.5957C134.64 64.5745 135.594 65.383 136.516 66.0213C137.454 66.6596 138.256 67.0638 138.924 67.234C138.987 67.2553 139.011 67.3298 138.995 67.4574C138.995 67.5638 138.971 67.617 138.924 67.617H136.683C135.793 67.617 134.442 66.5957 132.63 64.5532C131.359 63.2128 130.182 61.7234 129.102 60.0851C128.021 58.4468 127.195 56.8617 126.622 55.3298C126.177 53.9681 125.955 52.8085 125.955 51.8511C125.955 51 126.114 50.2021 126.432 49.4574C126.765 48.7128 127.218 48.117 127.791 47.6702C128.363 47.2234 129.014 47 129.745 47C130.461 47 131.088 47.234 131.629 47.7021C132.169 48.1702 132.439 48.9894 132.439 50.1596C132.439 50.9894 132.28 51.7447 131.962 52.4255C131.661 53.0851 131.271 53.6702 130.794 54.1809C130.333 54.6915 129.722 55.2872 128.959 55.9681C128.148 56.6915 127.497 57.3191 127.004 57.8511C126.527 58.383 126.122 59.0213 125.788 59.766C125.454 60.4894 125.287 61.3191 125.287 62.2553C125.287 63.1702 125.454 64.0106 125.788 64.7766C126.138 65.5213 126.606 66.117 127.195 66.5638C127.783 66.9894 128.442 67.2021 129.173 67.2021C130.175 67.2021 131.088 66.7979 131.915 65.9894C132.757 65.1809 133.417 64.1383 133.894 62.8617C134.386 61.5638 134.633 60.2234 134.633 58.8404C134.633 58.1809 134.521 57.6915 134.299 57.3723C134.092 57.0319 133.655 56.8617 132.988 56.8617C132.94 56.8617 132.908 56.7979 132.892 56.6702C132.892 56.5426 132.924 56.4787 132.988 56.4787L137.803 56.4468C137.867 56.4468 137.899 56.5106 137.899 56.6383C137.899 56.766 137.867 56.8298 137.803 56.8298C137.247 56.8298 136.826 56.8936 136.54 57.0213C136.27 57.1489 136.079 57.3298 135.968 57.5638C135.856 57.7979 135.753 58.1383 135.658 58.5851C135.117 61.117 134.275 63.3191 133.131 65.1915C131.986 67.0638 130.373 68 128.291 68C127.338 68 126.535 67.7766 125.883 67.3298C125.248 66.883 124.771 66.2979 124.453 65.5745C124.151 64.8298 124 64.0319 124 63.1809C124 62.2234 124.175 61.3617 124.524 60.5957C124.874 59.8085 125.295 59.1277 125.788 58.5532C126.297 57.9787 126.972 57.2872 127.814 56.4787C128.593 55.7553 129.213 55.1383 129.674 54.6277C130.135 54.0957 130.516 53.5 130.818 52.8404C131.136 52.1596 131.295 51.4255 131.295 50.6383Z" fill="#8B1111"></path></svg> 