<?xml version="1.0" encoding="UTF-8"?> <svg xmlns="http://www.w3.org/2000/svg" width="264" height="106" viewBox="0 0 264 106" fill="none"><path d="M128.608 38.824C129.109 38.824 129.627 38.8773 130.16 38.984C130.693 39.08 131.125 39.224 131.456 39.416C131.541 39.4693 131.595 39.5173 131.616 39.56C131.648 39.6027 131.669 39.6827 131.68 39.8L131.856 41.48C131.856 41.5013 131.829 41.5227 131.776 41.544C131.723 41.5547 131.691 41.5387 131.68 41.496C131.467 40.632 131.024 40.0293 130.352 39.688C129.691 39.336 128.901 39.16 127.984 39.16C127.141 39.16 126.405 39.3413 125.776 39.704C125.147 40.056 124.656 40.5573 124.304 41.208C123.952 41.848 123.776 42.6 123.776 43.464C123.776 44.232 123.899 44.952 124.144 45.624C124.4 46.296 124.747 46.8827 125.184 47.384C125.632 47.8853 126.139 48.28 126.704 48.568C127.28 48.856 127.888 49 128.528 49C129.285 49 129.952 48.7973 130.528 48.392C131.115 47.9867 131.547 47.3467 131.824 46.472C131.835 46.4293 131.867 46.4187 131.92 46.44C131.984 46.4507 132.016 46.4667 132.016 46.488L131.792 48.2C131.771 48.328 131.744 48.4133 131.712 48.456C131.691 48.488 131.632 48.5253 131.536 48.568C131.024 48.792 130.512 48.952 130 49.048C129.499 49.144 128.992 49.192 128.48 49.192C127.467 49.192 126.597 49.0373 125.872 48.728C125.147 48.408 124.555 47.992 124.096 47.48C123.648 46.9573 123.317 46.3867 123.104 45.768C122.891 45.1387 122.784 44.5147 122.784 43.896C122.784 43.1387 122.944 42.4507 123.264 41.832C123.584 41.2133 124.016 40.68 124.56 40.232C125.115 39.784 125.739 39.4373 126.432 39.192C127.136 38.9467 127.861 38.824 128.608 38.824ZM136.751 49.064C136.58 49.064 136.356 49.0533 136.079 49.032C135.812 49.0213 135.535 49.0107 135.247 49C134.959 48.9787 134.698 48.968 134.463 48.968C134.122 48.968 133.791 48.9733 133.471 48.984C133.151 48.9947 132.863 49 132.607 49C132.586 49 132.575 48.968 132.575 48.904C132.575 48.84 132.586 48.808 132.607 48.808C133.012 48.808 133.316 48.7813 133.519 48.728C133.732 48.6747 133.876 48.568 133.951 48.408C134.026 48.248 134.063 48.0133 134.063 47.704V40.296C134.063 39.9867 134.026 39.7573 133.951 39.608C133.887 39.448 133.754 39.3413 133.551 39.288C133.348 39.224 133.044 39.192 132.639 39.192C132.607 39.192 132.591 39.16 132.591 39.096C132.591 39.032 132.607 39 132.639 39H138.831C138.884 39 138.916 39.0107 138.927 39.032C138.948 39.0533 138.964 39.0907 138.975 39.144L139.199 41.08C139.199 41.112 139.172 41.1333 139.119 41.144C139.066 41.144 139.028 41.128 139.007 41.096C138.922 40.5627 138.724 40.1307 138.415 39.8C138.116 39.4693 137.732 39.304 137.263 39.304H136.287C135.892 39.304 135.594 39.3307 135.391 39.384C135.199 39.4373 135.066 39.544 134.991 39.704C134.927 39.8533 134.895 40.0827 134.895 40.392V47.704C134.895 47.9387 134.932 48.1413 135.007 48.312C135.082 48.472 135.226 48.5947 135.439 48.68C135.663 48.7653 135.994 48.808 136.431 48.808C137.327 48.808 137.972 48.6107 138.367 48.216C138.762 47.8107 138.959 47.2027 138.959 46.392C138.959 45.688 138.831 45.1387 138.575 44.744C138.319 44.3387 137.962 44.056 137.503 43.896C137.044 43.7253 136.5 43.64 135.871 43.64C135.668 43.64 135.455 43.6507 135.231 43.672C135.007 43.6933 134.778 43.7147 134.543 43.736L134.527 43.448C134.815 43.416 135.098 43.3947 135.375 43.384C135.652 43.3627 135.924 43.352 136.191 43.352C136.906 43.352 137.54 43.432 138.095 43.592C138.65 43.7413 139.087 44.008 139.407 44.392C139.727 44.7653 139.887 45.2933 139.887 45.976C139.887 46.584 139.754 47.1227 139.487 47.592C139.231 48.0507 138.868 48.4133 138.399 48.68C137.93 48.936 137.38 49.064 136.751 49.064Z" fill="#8B1111"></path><path d="M94.47 6.562L94.888 6.6L94.717 16.024C94.7043 16.6827 94.812 17.1387 95.04 17.392C95.268 17.6453 95.6923 17.772 96.313 17.772C96.3383 17.772 96.351 17.81 96.351 17.886C96.351 17.962 96.3383 18 96.313 18C95.9583 18 95.686 17.9937 95.496 17.981L94.47 17.962L93.539 17.981C93.3743 17.9937 93.1273 18 92.798 18C92.7727 18 92.76 17.962 92.76 17.886C92.76 17.81 92.7727 17.772 92.798 17.772C93.33 17.772 93.7037 17.6453 93.919 17.392C94.147 17.126 94.2673 16.67 94.28 16.024L94.47 6.562ZM107.333 17.772C107.371 17.772 107.39 17.81 107.39 17.886C107.39 17.962 107.371 18 107.333 18C106.94 18 106.63 17.9937 106.402 17.981L105.129 17.962L103.951 17.981C103.761 17.9937 103.495 18 103.153 18C103.128 18 103.115 17.962 103.115 17.886C103.115 17.81 103.128 17.772 103.153 17.772C103.596 17.772 103.919 17.7403 104.122 17.677C104.337 17.601 104.477 17.4743 104.54 17.297C104.616 17.1197 104.641 16.841 104.616 16.461L104.274 7.094L104.825 6.391L99.847 17.867C99.8217 17.9177 99.771 17.943 99.695 17.943C99.6317 17.943 99.5747 17.9177 99.524 17.867L94.888 7.702C94.6853 7.23333 94.4193 6.89133 94.09 6.676C93.7733 6.46067 93.387 6.353 92.931 6.353C92.9057 6.353 92.893 6.315 92.893 6.239C92.893 6.163 92.9057 6.125 92.931 6.125L93.577 6.144C93.7037 6.15667 93.8683 6.163 94.071 6.163C94.2737 6.163 94.4447 6.15667 94.584 6.144C94.7233 6.13133 94.831 6.125 94.907 6.125C95.0843 6.125 95.2237 6.18833 95.325 6.315C95.4263 6.429 95.5783 6.695 95.781 7.113L100.132 16.518L99.638 17.316L104.312 6.6C104.375 6.46067 104.458 6.34667 104.559 6.258C104.673 6.16933 104.781 6.125 104.882 6.125C104.933 6.125 105.015 6.13133 105.129 6.144C105.243 6.15667 105.401 6.163 105.604 6.163L106.459 6.144C106.586 6.13133 106.782 6.125 107.048 6.125C107.073 6.125 107.086 6.163 107.086 6.239C107.086 6.315 107.073 6.353 107.048 6.353C106.389 6.353 105.921 6.44167 105.642 6.619C105.376 6.78367 105.249 7.11933 105.262 7.626L105.623 16.461C105.636 16.8537 105.68 17.1387 105.756 17.316C105.845 17.4933 106.003 17.6137 106.231 17.677C106.472 17.7403 106.839 17.772 107.333 17.772ZM110.792 12.205H115.713L115.846 12.547H110.621L110.792 12.205ZM120.007 17.772C120.058 17.772 120.083 17.81 120.083 17.886C120.083 17.962 120.058 18 120.007 18C119.779 18 119.412 17.9873 118.905 17.962C118.424 17.9367 118.069 17.924 117.841 17.924C117.575 17.924 117.227 17.9367 116.796 17.962C116.391 17.9873 116.087 18 115.884 18C115.834 18 115.808 17.962 115.808 17.886C115.808 17.81 115.834 17.772 115.884 17.772C116.404 17.772 116.777 17.7277 117.005 17.639C117.233 17.5377 117.347 17.373 117.347 17.145C117.347 16.9677 117.278 16.7207 117.138 16.404L112.844 7.17L113.205 6.847L109.538 15.663C109.361 16.0937 109.272 16.4483 109.272 16.727C109.272 17.0943 109.424 17.3603 109.728 17.525C110.032 17.6897 110.507 17.772 111.153 17.772C111.217 17.772 111.248 17.81 111.248 17.886C111.248 17.962 111.217 18 111.153 18C110.925 18 110.596 17.9873 110.165 17.962C109.684 17.9367 109.266 17.924 108.911 17.924C108.595 17.924 108.221 17.9367 107.79 17.962C107.41 17.9873 107.1 18 106.859 18C106.796 18 106.764 17.962 106.764 17.886C106.764 17.81 106.796 17.772 106.859 17.772C107.214 17.772 107.512 17.7087 107.752 17.582C108.006 17.4553 108.24 17.2273 108.455 16.898C108.683 16.5687 108.924 16.1 109.177 15.492L113.148 5.935C113.174 5.897 113.212 5.878 113.262 5.878C113.326 5.878 113.364 5.897 113.376 5.935L117.784 15.397C118.076 16.043 118.335 16.537 118.563 16.879C118.791 17.2083 119.013 17.4427 119.228 17.582C119.456 17.7087 119.716 17.772 120.007 17.772ZM130.88 6.049C130.918 5.99833 130.981 5.973 131.07 5.973C131.133 5.973 131.19 5.98567 131.241 6.011C131.304 6.03633 131.336 6.068 131.336 6.106V16.461C131.336 16.841 131.38 17.126 131.469 17.316C131.558 17.4933 131.716 17.6137 131.944 17.677C132.185 17.7403 132.552 17.772 133.046 17.772C133.084 17.772 133.103 17.81 133.103 17.886C133.103 17.962 133.084 18 133.046 18C132.666 18 132.362 17.9937 132.134 17.981L130.842 17.962L129.55 17.981C129.335 17.9937 129.037 18 128.657 18C128.619 18 128.6 17.962 128.6 17.886C128.6 17.81 128.619 17.772 128.657 17.772C129.164 17.772 129.531 17.7403 129.759 17.677C129.987 17.6137 130.139 17.4933 130.215 17.316C130.291 17.1387 130.329 16.8537 130.329 16.461V6.942L130.633 7.075L122.007 18.171C121.969 18.2217 121.899 18.247 121.798 18.247C121.621 18.247 121.532 18.2027 121.532 18.114V7.664C121.532 7.284 121.488 7.00533 121.399 6.828C121.31 6.65067 121.146 6.53033 120.905 6.467C120.677 6.391 120.316 6.353 119.822 6.353C119.797 6.353 119.784 6.315 119.784 6.239C119.784 6.163 119.797 6.125 119.822 6.125L120.772 6.144C121.279 6.16933 121.697 6.182 122.026 6.182C122.381 6.182 122.811 6.16933 123.318 6.144L124.23 6.125C124.255 6.125 124.268 6.163 124.268 6.239C124.268 6.315 124.255 6.353 124.23 6.353C123.723 6.353 123.356 6.391 123.128 6.467C122.9 6.53033 122.742 6.65067 122.653 6.828C122.577 7.00533 122.539 7.284 122.539 7.664V17.297L122.254 17.164L130.88 6.049ZM126.814 4.985C127.169 4.985 127.466 4.87733 127.707 4.662C127.96 4.44667 128.131 4.168 128.22 3.826C128.309 3.522 128.397 3.30033 128.486 3.161C128.587 3.02167 128.746 2.952 128.961 2.952C129.278 2.952 129.436 3.12933 129.436 3.484C129.436 3.77533 129.309 4.054 129.056 4.32C128.815 4.586 128.492 4.80133 128.087 4.966C127.682 5.118 127.264 5.194 126.833 5.194C126.39 5.194 125.965 5.11167 125.56 4.947C125.167 4.78233 124.851 4.567 124.61 4.301C124.369 4.035 124.249 3.75633 124.249 3.465C124.249 3.30033 124.287 3.17367 124.363 3.085C124.452 2.99633 124.572 2.952 124.724 2.952C124.939 2.952 125.091 3.02167 125.18 3.161C125.281 3.30033 125.376 3.522 125.465 3.826C125.554 4.14267 125.706 4.415 125.921 4.643C126.149 4.871 126.447 4.985 126.814 4.985ZM137.072 18C137.009 18 136.958 17.981 136.92 17.943C136.895 17.8923 136.901 17.8543 136.939 17.829C137.218 17.487 137.598 17.0247 138.079 16.442C138.979 15.3527 139.707 14.428 140.264 13.668C140.834 12.908 141.316 12.1227 141.708 11.312C142.101 10.4887 142.297 9.716 142.297 8.994C142.297 8.28467 142.095 7.70833 141.689 7.265C141.297 6.82167 140.733 6.6 139.998 6.6C139.34 6.6 138.782 6.79 138.326 7.17C137.87 7.55 137.522 8.09467 137.281 8.804C137.281 8.81667 137.256 8.823 137.205 8.823C137.104 8.823 137.06 8.79767 137.072 8.747C137.275 7.835 137.668 7.13833 138.25 6.657C138.833 6.163 139.555 5.916 140.416 5.916C141.316 5.916 142.031 6.17567 142.563 6.695C143.095 7.21433 143.361 7.87933 143.361 8.69C143.361 9.43733 143.14 10.229 142.696 11.065C142.266 11.901 141.765 12.6737 141.195 13.383C140.625 14.0797 139.935 14.8777 139.124 15.777C138.605 16.3343 138.225 16.7713 137.984 17.088C137.921 17.1767 137.946 17.221 138.06 17.221C139.796 17.221 141.005 17.202 141.689 17.164C142.373 17.1133 142.861 17.0057 143.152 16.841C143.444 16.6637 143.602 16.3597 143.627 15.929C143.627 15.9037 143.659 15.891 143.722 15.891C143.798 15.891 143.836 15.9037 143.836 15.929L143.798 17.791C143.798 17.8417 143.779 17.8923 143.741 17.943C143.716 17.981 143.678 18 143.627 18H137.072ZM148.666 18.247C147.932 18.247 147.273 17.9873 146.69 17.468C146.108 16.936 145.652 16.2013 145.322 15.264C144.993 14.3267 144.828 13.2563 144.828 12.053C144.828 10.875 144.993 9.81733 145.322 8.88C145.652 7.94267 146.108 7.21433 146.69 6.695C147.286 6.163 147.957 5.897 148.704 5.897C149.439 5.897 150.091 6.163 150.661 6.695C151.231 7.227 151.675 7.96167 151.991 8.899C152.308 9.83633 152.466 10.9067 152.466 12.11C152.466 13.3007 152.302 14.3647 151.972 15.302C151.656 16.2267 151.206 16.9487 150.623 17.468C150.053 17.9873 149.401 18.247 148.666 18.247ZM148.894 18.019C149.705 18.019 150.313 17.5123 150.718 16.499C151.136 15.473 151.345 14.086 151.345 12.338C151.345 10.9827 151.212 9.83633 150.946 8.899C150.693 7.96167 150.351 7.265 149.92 6.809C149.49 6.34033 149.015 6.106 148.495 6.106C147.697 6.106 147.07 6.64433 146.614 7.721C146.171 8.79767 145.949 10.1973 145.949 11.92C145.949 13.098 146.07 14.1493 146.31 15.074C146.551 15.9987 146.893 16.7207 147.336 17.24C147.78 17.7593 148.299 18.019 148.894 18.019ZM153.226 18C153.163 18 153.112 17.981 153.074 17.943C153.049 17.8923 153.055 17.8543 153.093 17.829C153.372 17.487 153.752 17.0247 154.233 16.442C155.132 15.3527 155.861 14.428 156.418 13.668C156.988 12.908 157.469 12.1227 157.862 11.312C158.255 10.4887 158.451 9.716 158.451 8.994C158.451 8.28467 158.248 7.70833 157.843 7.265C157.45 6.82167 156.887 6.6 156.152 6.6C155.493 6.6 154.936 6.79 154.48 7.17C154.024 7.55 153.676 8.09467 153.435 8.804C153.435 8.81667 153.41 8.823 153.359 8.823C153.258 8.823 153.213 8.79767 153.226 8.747C153.429 7.835 153.821 7.13833 154.404 6.657C154.987 6.163 155.709 5.916 156.57 5.916C157.469 5.916 158.185 6.17567 158.717 6.695C159.249 7.21433 159.515 7.87933 159.515 8.69C159.515 9.43733 159.293 10.229 158.85 11.065C158.419 11.901 157.919 12.6737 157.349 13.383C156.779 14.0797 156.089 14.8777 155.278 15.777C154.759 16.3343 154.379 16.7713 154.138 17.088C154.075 17.1767 154.1 17.221 154.214 17.221C155.949 17.221 157.159 17.202 157.843 17.164C158.527 17.1133 159.015 17.0057 159.306 16.841C159.597 16.6637 159.756 16.3597 159.781 15.929C159.781 15.9037 159.813 15.891 159.876 15.891C159.952 15.891 159.99 15.9037 159.99 15.929L159.952 17.791C159.952 17.8417 159.933 17.8923 159.895 17.943C159.87 17.981 159.832 18 159.781 18H153.226ZM165.599 11.54C166.182 11.54 166.682 11.692 167.1 11.996C167.531 12.2873 167.854 12.6737 168.069 13.155C168.297 13.6363 168.411 14.1557 168.411 14.713C168.411 15.3717 168.253 15.9733 167.936 16.518C167.632 17.05 167.202 17.4743 166.644 17.791C166.087 18.095 165.46 18.247 164.763 18.247C163.585 18.247 162.699 17.8353 162.103 17.012C161.508 16.176 161.21 15.074 161.21 13.706C161.21 12.452 161.451 11.2423 161.932 10.077C162.414 8.899 163.11 7.93 164.022 7.17C164.934 6.39733 165.998 5.97933 167.214 5.916C167.252 5.916 167.278 5.94767 167.29 6.011C167.316 6.06167 167.303 6.09333 167.252 6.106C166.188 6.296 165.276 6.76467 164.516 7.512C163.769 8.24667 163.205 9.13967 162.825 10.191C162.445 11.2297 162.255 12.2937 162.255 13.383C162.255 14.6243 162.502 15.6883 162.996 16.575C163.503 17.4617 164.269 17.905 165.295 17.905C165.992 17.905 166.511 17.6707 166.853 17.202C167.195 16.7333 167.366 16.081 167.366 15.245C167.366 14.3077 167.164 13.5477 166.758 12.965C166.353 12.3823 165.815 12.091 165.143 12.091C164.485 12.091 163.877 12.3887 163.319 12.984L163.281 13.003C163.231 13.003 163.18 12.984 163.129 12.946C163.091 12.908 163.085 12.8763 163.11 12.851C163.414 12.4203 163.782 12.0973 164.212 11.882C164.656 11.654 165.118 11.54 165.599 11.54Z" fill="#8B1111"></path><path d="M75.232 48.808C75.2533 48.808 75.264 48.84 75.264 48.904C75.264 48.968 75.2533 49 75.232 49C74.976 49 74.688 48.9947 74.368 48.984C74.048 48.9733 73.7173 48.968 73.376 48.968C73.0133 48.968 72.6773 48.9733 72.368 48.984C72.0587 48.9947 71.776 49 71.52 49C71.4987 49 71.488 48.968 71.488 48.904C71.488 48.84 71.4987 48.808 71.52 48.808C71.936 48.808 72.2453 48.7813 72.448 48.728C72.6507 48.6747 72.784 48.568 72.848 48.408C72.912 48.248 72.944 48.0133 72.944 47.704V40.328C72.944 39.9973 72.9227 39.7627 72.88 39.624C72.848 39.4853 72.736 39.4053 72.544 39.384C72.352 39.352 72.032 39.336 71.584 39.336H68.304C67.8347 39.336 67.4987 39.352 67.296 39.384C67.0933 39.416 66.9707 39.5013 66.928 39.64C66.8853 39.7787 66.864 40.008 66.864 40.328V47.704C66.864 48.0133 66.896 48.248 66.96 48.408C67.024 48.568 67.1573 48.6747 67.36 48.728C67.5733 48.7813 67.8827 48.808 68.288 48.808C68.3093 48.808 68.32 48.84 68.32 48.904C68.32 48.968 68.3093 49 68.288 49C68.032 49 67.7493 48.9947 67.44 48.984C67.1413 48.9733 66.8053 48.968 66.432 48.968C66.0907 48.968 65.76 48.9733 65.44 48.984C65.12 48.9947 64.832 49 64.576 49C64.5547 49 64.544 48.968 64.544 48.904C64.544 48.84 64.5547 48.808 64.576 48.808C64.9813 48.808 65.2853 48.7813 65.488 48.728C65.7013 48.6747 65.84 48.568 65.904 48.408C65.9787 48.248 66.016 48.0133 66.016 47.704V40.488C66.016 40.0293 65.9307 39.6987 65.76 39.496C65.5893 39.2933 65.2 39.192 64.592 39.192C64.5707 39.192 64.56 39.16 64.56 39.096C64.56 39.032 64.5707 39 64.592 39C64.7733 39 65.1307 39.0053 65.664 39.016C66.208 39.0267 66.8587 39.0373 67.616 39.048C68.3733 39.048 69.1573 39.048 69.968 39.048C70.6187 39.048 71.2427 39.048 71.84 39.048C72.4373 39.0373 72.976 39.032 73.456 39.032C73.9467 39.0213 74.3467 39.016 74.656 39.016C74.976 39.0053 75.168 39 75.232 39C75.2533 39 75.264 39.032 75.264 39.096C75.264 39.16 75.2533 39.192 75.232 39.192C74.624 39.192 74.2293 39.2933 74.048 39.496C73.8773 39.6987 73.792 40.0293 73.792 40.488V47.704C73.792 48.0133 73.824 48.248 73.888 48.408C73.9627 48.568 74.1013 48.6747 74.304 48.728C74.5173 48.7813 74.8267 48.808 75.232 48.808ZM77.9081 39.272C77.2361 39.272 76.7455 39.432 76.4361 39.752C76.1375 40.072 75.9295 40.6427 75.8121 41.464C75.8121 41.4853 75.7801 41.496 75.7161 41.496C75.6521 41.496 75.6201 41.4853 75.6201 41.464C75.6415 41.336 75.6628 41.1493 75.6841 40.904C75.7161 40.6587 75.7428 40.3973 75.7641 40.12C75.7855 39.832 75.8015 39.56 75.8121 39.304C75.8335 39.0373 75.8441 38.8187 75.8441 38.648C75.8441 38.5947 75.8761 38.568 75.9401 38.568C76.0041 38.568 76.0361 38.5947 76.0361 38.648C76.0361 38.7547 76.0841 38.8347 76.1801 38.888C76.2868 38.9307 76.4041 38.9627 76.5321 38.984C76.6708 38.9947 76.7881 39 76.8841 39C77.8015 39.032 78.8735 39.048 80.1001 39.048C80.8575 39.048 81.4548 39.0427 81.8921 39.032C82.3401 39.0107 82.7721 39 83.1881 39C83.5401 39 83.8121 38.9787 84.0041 38.936C84.2068 38.8827 84.3348 38.7707 84.3881 38.6C84.3988 38.5573 84.4308 38.536 84.4841 38.536C84.5375 38.536 84.5641 38.5573 84.5641 38.6C84.5535 38.76 84.5375 38.9733 84.5161 39.24C84.4948 39.5067 84.4788 39.7893 84.4681 40.088C84.4575 40.376 84.4468 40.648 84.4361 40.904C84.4255 41.1493 84.4201 41.336 84.4201 41.464C84.4201 41.4853 84.3881 41.496 84.3241 41.496C84.2601 41.496 84.2281 41.4853 84.2281 41.464C84.2281 40.6427 84.0895 40.072 83.8121 39.752C83.5348 39.432 83.0281 39.272 82.2921 39.272C81.7908 39.272 81.4121 39.2933 81.1561 39.336C80.9108 39.368 80.7455 39.4587 80.6601 39.608C80.5855 39.7467 80.5481 39.9867 80.5481 40.328V47.704C80.5481 48.0133 80.5855 48.248 80.6601 48.408C80.7348 48.568 80.8841 48.6747 81.1081 48.728C81.3428 48.7813 81.6948 48.808 82.1641 48.808C82.1855 48.808 82.1961 48.84 82.1961 48.904C82.1961 48.968 82.1855 49 82.1641 49C81.8868 49 81.5721 48.9947 81.2201 48.984C80.8788 48.9733 80.5055 48.968 80.1001 48.968C79.7161 48.968 79.3481 48.9733 78.9961 48.984C78.6548 48.9947 78.3401 49 78.0521 49C78.0308 49 78.0201 48.968 78.0201 48.904C78.0201 48.84 78.0308 48.808 78.0521 48.808C78.5108 48.808 78.8575 48.7813 79.0921 48.728C79.3268 48.6747 79.4815 48.568 79.5561 48.408C79.6415 48.248 79.6841 48.0133 79.6841 47.704V40.296C79.6841 39.9547 79.6415 39.7147 79.5561 39.576C79.4708 39.4267 79.3001 39.3413 79.0441 39.32C78.7881 39.288 78.4095 39.272 77.9081 39.272Z" fill="#8B1111"></path><path d="M18.104 40.328C18.104 40.0187 18.072 39.784 18.008 39.624C17.9547 39.464 17.8427 39.352 17.672 39.288C17.5013 39.224 17.2347 39.192 16.872 39.192C16.8507 39.192 16.84 39.16 16.84 39.096C16.84 39.032 16.8507 39 16.872 39C17.096 39 17.3467 39.0107 17.624 39.032C17.9013 39.0427 18.2053 39.048 18.536 39.048C18.888 39.048 19.224 39.0427 19.544 39.032C19.864 39.0107 20.1467 39 20.392 39C20.424 39 20.44 39.032 20.44 39.096C20.44 39.16 20.424 39.192 20.392 39.192C19.9867 39.192 19.6773 39.224 19.464 39.288C19.2613 39.3413 19.1227 39.448 19.048 39.608C18.984 39.7573 18.952 39.9867 18.952 40.296V47.704C18.952 48.0133 18.984 48.248 19.048 48.408C19.1227 48.568 19.2613 48.6747 19.464 48.728C19.6773 48.7813 19.9867 48.808 20.392 48.808C20.424 48.808 20.44 48.84 20.44 48.904C20.44 48.968 20.424 49 20.392 49C20.1467 49 19.864 48.9947 19.544 48.984C19.224 48.9733 18.888 48.968 18.536 48.968C18.1733 48.968 17.8373 48.9733 17.528 48.984C17.2187 48.9947 16.9413 49 16.696 49C16.664 49 16.648 48.968 16.648 48.904C16.648 48.84 16.664 48.808 16.696 48.808C17.112 48.808 17.416 48.7813 17.608 48.728C17.8107 48.6747 17.944 48.568 18.008 48.408C18.072 48.248 18.104 48.0133 18.104 47.704V40.328ZM18.472 43.736C17.864 44.216 17.2773 44.5573 16.712 44.76C16.1467 44.9627 15.6133 45.064 15.112 45.064C14.248 45.064 13.576 44.8347 13.096 44.376C12.6267 43.9067 12.392 43.272 12.392 42.472V40.296C12.392 39.9867 12.3547 39.7573 12.28 39.608C12.216 39.448 12.0827 39.3413 11.88 39.288C11.6773 39.224 11.3733 39.192 10.968 39.192C10.936 39.192 10.92 39.16 10.92 39.096C10.92 39.032 10.936 39 10.968 39C11.1387 39 11.32 39.0053 11.512 39.016C11.704 39.0267 11.9067 39.0373 12.12 39.048C12.344 39.048 12.568 39.048 12.792 39.048C13.1227 39.048 13.4267 39.0427 13.704 39.032C13.992 39.0107 14.2427 39 14.456 39C14.488 39 14.504 39.032 14.504 39.096C14.504 39.16 14.488 39.192 14.456 39.192C13.9333 39.192 13.5973 39.2667 13.448 39.416C13.2987 39.5653 13.224 39.8693 13.224 40.328V41.912C13.224 42.744 13.4107 43.3733 13.784 43.8C14.168 44.2267 14.7387 44.44 15.496 44.44C15.8373 44.44 16.2533 44.3813 16.744 44.264C17.2453 44.1467 17.7733 43.9333 18.328 43.624L18.472 43.736ZM23.08 39.272C22.408 39.272 21.9173 39.432 21.608 39.752C21.3093 40.072 21.1013 40.6427 20.984 41.464C20.984 41.4853 20.952 41.496 20.888 41.496C20.824 41.496 20.792 41.4853 20.792 41.464C20.8133 41.336 20.8347 41.1493 20.856 40.904C20.888 40.6587 20.9147 40.3973 20.936 40.12C20.9573 39.832 20.9733 39.56 20.984 39.304C21.0053 39.0373 21.016 38.8187 21.016 38.648C21.016 38.5947 21.048 38.568 21.112 38.568C21.176 38.568 21.208 38.5947 21.208 38.648C21.208 38.7547 21.256 38.8347 21.352 38.888C21.4587 38.9307 21.576 38.9627 21.704 38.984C21.8427 38.9947 21.96 39 22.056 39C22.9733 39.032 24.0453 39.048 25.272 39.048C26.0293 39.048 26.6267 39.0427 27.064 39.032C27.512 39.0107 27.944 39 28.36 39C28.712 39 28.984 38.9787 29.176 38.936C29.3787 38.8827 29.5067 38.7707 29.56 38.6C29.5707 38.5573 29.6027 38.536 29.656 38.536C29.7093 38.536 29.736 38.5573 29.736 38.6C29.7253 38.76 29.7093 38.9733 29.688 39.24C29.6667 39.5067 29.6507 39.7893 29.64 40.088C29.6293 40.376 29.6187 40.648 29.608 40.904C29.5973 41.1493 29.592 41.336 29.592 41.464C29.592 41.4853 29.56 41.496 29.496 41.496C29.432 41.496 29.4 41.4853 29.4 41.464C29.4 40.6427 29.2613 40.072 28.984 39.752C28.7067 39.432 28.2 39.272 27.464 39.272C26.9627 39.272 26.584 39.2933 26.328 39.336C26.0827 39.368 25.9173 39.4587 25.832 39.608C25.7573 39.7467 25.72 39.9867 25.72 40.328V47.704C25.72 48.0133 25.7573 48.248 25.832 48.408C25.9067 48.568 26.056 48.6747 26.28 48.728C26.5147 48.7813 26.8667 48.808 27.336 48.808C27.3573 48.808 27.368 48.84 27.368 48.904C27.368 48.968 27.3573 49 27.336 49C27.0587 49 26.744 48.9947 26.392 48.984C26.0507 48.9733 25.6773 48.968 25.272 48.968C24.888 48.968 24.52 48.9733 24.168 48.984C23.8267 48.9947 23.512 49 23.224 49C23.2027 49 23.192 48.968 23.192 48.904C23.192 48.84 23.2027 48.808 23.224 48.808C23.6827 48.808 24.0293 48.7813 24.264 48.728C24.4987 48.6747 24.6533 48.568 24.728 48.408C24.8133 48.248 24.856 48.0133 24.856 47.704V40.296C24.856 39.9547 24.8133 39.7147 24.728 39.576C24.6427 39.4267 24.472 39.3413 24.216 39.32C23.96 39.288 23.5813 39.272 23.08 39.272Z" fill="#8B1111"></path><path d="M184.768 43.496L184.944 43.352C185.552 43.352 186.085 43.4693 186.544 43.704C187.003 43.9387 187.355 44.2587 187.6 44.664C187.856 45.0693 187.984 45.528 187.984 46.04C187.984 46.616 187.851 47.1333 187.584 47.592C187.317 48.0507 186.949 48.4133 186.48 48.68C186.021 48.936 185.504 49.064 184.928 49.064C184.576 49.064 184.187 49.048 183.76 49.016C183.333 48.984 182.933 48.968 182.56 48.968C182.219 48.968 181.888 48.9733 181.568 48.984C181.248 48.9947 180.96 49 180.704 49C180.683 49 180.672 48.968 180.672 48.904C180.672 48.84 180.683 48.808 180.704 48.808C181.109 48.808 181.413 48.7813 181.616 48.728C181.829 48.6747 181.973 48.568 182.048 48.408C182.123 48.248 182.16 48.0133 182.16 47.704V40.296C182.16 39.9867 182.123 39.7573 182.048 39.608C181.984 39.448 181.851 39.3413 181.648 39.288C181.445 39.224 181.141 39.192 180.736 39.192C180.704 39.192 180.688 39.16 180.688 39.096C180.688 39.032 180.704 39 180.736 39C180.981 39 181.259 39.0107 181.568 39.032C181.888 39.0427 182.219 39.048 182.56 39.048C182.837 39.048 183.157 39.032 183.52 39C183.893 38.968 184.197 38.952 184.432 38.952C185.061 38.952 185.563 39.0533 185.936 39.256C186.32 39.448 186.597 39.704 186.768 40.024C186.939 40.344 187.024 40.696 187.024 41.08C187.024 41.688 186.805 42.2 186.368 42.616C185.941 43.032 185.408 43.3253 184.768 43.496ZM184.064 39.16C183.808 39.16 183.6 39.1813 183.44 39.224C183.28 39.256 183.163 39.352 183.088 39.512C183.024 39.672 182.992 39.944 182.992 40.328V43.464L182.512 43.336C182.853 43.3573 183.136 43.3733 183.36 43.384C183.584 43.384 183.712 43.384 183.744 43.384C184.629 43.384 185.253 43.176 185.616 42.76C185.979 42.3333 186.16 41.8107 186.16 41.192C186.16 40.8293 186.091 40.4933 185.952 40.184C185.824 39.8747 185.605 39.6293 185.296 39.448C184.997 39.256 184.587 39.16 184.064 39.16ZM184.704 48.808C185.515 48.808 186.107 48.6 186.48 48.184C186.864 47.7573 187.056 47.176 187.056 46.44C187.056 45.64 186.811 44.984 186.32 44.472C185.829 43.96 185.157 43.6987 184.304 43.688C184.005 43.6773 183.712 43.6773 183.424 43.688C183.136 43.6987 182.848 43.7253 182.56 43.768L182.992 43.592V47.704C182.992 47.9707 183.035 48.1893 183.12 48.36C183.205 48.52 183.371 48.6373 183.616 48.712C183.861 48.776 184.224 48.808 184.704 48.808ZM194.589 38.824C195.091 38.824 195.608 38.8773 196.141 38.984C196.675 39.08 197.107 39.224 197.437 39.416C197.523 39.4693 197.576 39.5173 197.597 39.56C197.629 39.6027 197.651 39.6827 197.661 39.8L197.837 41.48C197.837 41.5013 197.811 41.5227 197.757 41.544C197.704 41.5547 197.672 41.5387 197.661 41.496C197.448 40.632 197.005 40.0293 196.333 39.688C195.672 39.336 194.883 39.16 193.965 39.16C193.123 39.16 192.387 39.3413 191.757 39.704C191.128 40.056 190.637 40.5573 190.285 41.208C189.933 41.848 189.757 42.6 189.757 43.464C189.757 44.232 189.88 44.952 190.125 45.624C190.381 46.296 190.728 46.8827 191.165 47.384C191.613 47.8853 192.12 48.28 192.685 48.568C193.261 48.856 193.869 49 194.509 49C195.267 49 195.933 48.7973 196.509 48.392C197.096 47.9867 197.528 47.3467 197.805 46.472C197.816 46.4293 197.848 46.4187 197.901 46.44C197.965 46.4507 197.997 46.4667 197.997 46.488L197.773 48.2C197.752 48.328 197.725 48.4133 197.693 48.456C197.672 48.488 197.613 48.5253 197.517 48.568C197.005 48.792 196.493 48.952 195.981 49.048C195.48 49.144 194.973 49.192 194.461 49.192C193.448 49.192 192.579 49.0373 191.853 48.728C191.128 48.408 190.536 47.992 190.077 47.48C189.629 46.9573 189.299 46.3867 189.085 45.768C188.872 45.1387 188.765 44.5147 188.765 43.896C188.765 43.1387 188.925 42.4507 189.245 41.832C189.565 41.2133 189.997 40.68 190.541 40.232C191.096 39.784 191.72 39.4373 192.413 39.192C193.117 38.9467 193.843 38.824 194.589 38.824Z" fill="#8B1111"></path><path d="M242.232 48.808C242.253 48.808 242.264 48.84 242.264 48.904C242.264 48.968 242.253 49 242.232 49C241.976 49 241.688 48.9947 241.368 48.984C241.048 48.9733 240.717 48.968 240.376 48.968C240.013 48.968 239.677 48.9733 239.368 48.984C239.059 48.9947 238.776 49 238.52 49C238.499 49 238.488 48.968 238.488 48.904C238.488 48.84 238.499 48.808 238.52 48.808C238.936 48.808 239.245 48.7813 239.448 48.728C239.651 48.6747 239.784 48.568 239.848 48.408C239.912 48.248 239.944 48.0133 239.944 47.704V40.328C239.944 39.9973 239.923 39.7627 239.88 39.624C239.848 39.4853 239.736 39.4053 239.544 39.384C239.352 39.352 239.032 39.336 238.584 39.336H235.304C234.835 39.336 234.499 39.352 234.296 39.384C234.093 39.416 233.971 39.5013 233.928 39.64C233.885 39.7787 233.864 40.008 233.864 40.328V47.704C233.864 48.0133 233.896 48.248 233.96 48.408C234.024 48.568 234.157 48.6747 234.36 48.728C234.573 48.7813 234.883 48.808 235.288 48.808C235.309 48.808 235.32 48.84 235.32 48.904C235.32 48.968 235.309 49 235.288 49C235.032 49 234.749 48.9947 234.44 48.984C234.141 48.9733 233.805 48.968 233.432 48.968C233.091 48.968 232.76 48.9733 232.44 48.984C232.12 48.9947 231.832 49 231.576 49C231.555 49 231.544 48.968 231.544 48.904C231.544 48.84 231.555 48.808 231.576 48.808C231.981 48.808 232.285 48.7813 232.488 48.728C232.701 48.6747 232.84 48.568 232.904 48.408C232.979 48.248 233.016 48.0133 233.016 47.704V40.488C233.016 40.0293 232.931 39.6987 232.76 39.496C232.589 39.2933 232.2 39.192 231.592 39.192C231.571 39.192 231.56 39.16 231.56 39.096C231.56 39.032 231.571 39 231.592 39C231.773 39 232.131 39.0053 232.664 39.016C233.208 39.0267 233.859 39.0373 234.616 39.048C235.373 39.048 236.157 39.048 236.968 39.048C237.619 39.048 238.243 39.048 238.84 39.048C239.437 39.0373 239.976 39.032 240.456 39.032C240.947 39.0213 241.347 39.016 241.656 39.016C241.976 39.0053 242.168 39 242.232 39C242.253 39 242.264 39.032 242.264 39.096C242.264 39.16 242.253 39.192 242.232 39.192C241.624 39.192 241.229 39.2933 241.048 39.496C240.877 39.6987 240.792 40.0293 240.792 40.488V47.704C240.792 48.0133 240.824 48.248 240.888 48.408C240.963 48.568 241.101 48.6747 241.304 48.728C241.517 48.7813 241.827 48.808 242.232 48.808ZM251.276 40.328C251.276 40.0187 251.244 39.784 251.18 39.624C251.116 39.464 250.983 39.352 250.78 39.288C250.577 39.224 250.268 39.192 249.852 39.192C249.82 39.192 249.804 39.16 249.804 39.096C249.804 39.032 249.82 39 249.852 39C250.097 39 250.375 39.0107 250.684 39.032C251.004 39.0427 251.345 39.048 251.708 39.048C252.049 39.048 252.38 39.0427 252.7 39.032C253.02 39.0107 253.303 39 253.548 39C253.58 39 253.596 39.032 253.596 39.096C253.596 39.16 253.58 39.192 253.548 39.192C253.143 39.192 252.833 39.224 252.62 39.288C252.417 39.3413 252.279 39.448 252.204 39.608C252.14 39.7573 252.108 39.9867 252.108 40.296V47.704C252.108 48.0133 252.14 48.248 252.204 48.408C252.279 48.568 252.417 48.6747 252.62 48.728C252.833 48.7813 253.143 48.808 253.548 48.808C253.58 48.808 253.596 48.84 253.596 48.904C253.596 48.968 253.58 49 253.548 49C253.303 49 253.02 48.9947 252.7 48.984C252.38 48.9733 252.049 48.968 251.708 48.968C251.345 48.968 251.004 48.9733 250.684 48.984C250.375 48.9947 250.097 49 249.852 49C249.82 49 249.804 48.968 249.804 48.904C249.804 48.84 249.82 48.808 249.852 48.808C250.268 48.808 250.577 48.7813 250.78 48.728C250.983 48.6747 251.116 48.568 251.18 48.408C251.244 48.248 251.276 48.0133 251.276 47.704V40.328ZM244.428 43.944V43.64H251.628V43.944H244.428ZM244.044 47.704V40.296C244.044 39.9867 244.007 39.7573 243.932 39.608C243.868 39.448 243.735 39.3413 243.532 39.288C243.329 39.224 243.025 39.192 242.62 39.192C242.599 39.192 242.588 39.16 242.588 39.096C242.588 39.032 242.599 39 242.62 39C242.876 39 243.159 39.0107 243.468 39.032C243.788 39.0427 244.119 39.048 244.46 39.048C244.833 39.048 245.175 39.0427 245.484 39.032C245.793 39.0107 246.071 39 246.316 39C246.337 39 246.348 39.032 246.348 39.096C246.348 39.16 246.337 39.192 246.316 39.192C245.911 39.192 245.607 39.224 245.404 39.288C245.201 39.352 245.063 39.464 244.988 39.624C244.924 39.784 244.892 40.0187 244.892 40.328V47.704C244.892 48.0133 244.924 48.248 244.988 48.408C245.052 48.568 245.185 48.6747 245.388 48.728C245.601 48.7813 245.911 48.808 246.316 48.808C246.337 48.808 246.348 48.84 246.348 48.904C246.348 48.968 246.337 49 246.316 49C246.06 49 245.777 48.9947 245.468 48.984C245.169 48.9733 244.833 48.968 244.46 48.968C244.119 48.968 243.788 48.9733 243.468 48.984C243.148 48.9947 242.86 49 242.604 49C242.583 49 242.572 48.968 242.572 48.904C242.572 48.84 242.583 48.808 242.604 48.808C243.009 48.808 243.313 48.7813 243.516 48.728C243.729 48.6747 243.868 48.568 243.932 48.408C244.007 48.248 244.044 48.0133 244.044 47.704Z" fill="#8B1111"></path><path d="M10.34 98C10.3 98 10.28 97.94 10.28 97.82C10.28 97.7 10.3 97.64 10.34 97.64C11.3 97.64 12.01 97.59 12.47 97.49C12.95 97.37 13.28 97.17 13.46 96.89C13.64 96.61 13.73 96.17 13.73 95.57V82.76C13.73 81.8 13.49 81.32 13.01 81.32C12.75 81.32 12.39 81.45 11.93 81.71C11.49 81.95 10.91 82.34 10.19 82.88L10.13 82.91C10.05 82.91 9.99 82.86 9.95 82.76C9.91 82.66 9.93 82.59 10.01 82.55L14.75 79.04C14.85 78.98 14.92 78.95 14.96 78.95C15 78.95 15.03 78.97 15.05 79.01C15.09 79.05 15.11 79.09 15.11 79.13V95.57C15.11 96.19 15.19 96.64 15.35 96.92C15.51 97.2 15.82 97.39 16.28 97.49C16.74 97.59 17.48 97.64 18.5 97.64C18.54 97.64 18.56 97.7 18.56 97.82C18.56 97.94 18.54 98 18.5 98C17.78 98 17.21 97.99 16.79 97.97L14.42 97.94L12.08 97.97C11.66 97.99 11.08 98 10.34 98ZM28.0888 95.57C28.0888 96.19 28.1388 96.64 28.2388 96.92C28.3588 97.2 28.5688 97.39 28.8688 97.49C29.1888 97.59 29.6988 97.64 30.3988 97.64C30.4388 97.64 30.4588 97.7 30.4588 97.82C30.4588 97.94 30.4388 98 30.3988 98C29.8788 98 29.4688 97.99 29.1688 97.97L27.3388 97.94L25.1488 97.97C24.7688 97.99 24.2488 98 23.5888 98C23.5288 98 23.4988 97.94 23.4988 97.82C23.4988 97.7 23.5288 97.64 23.5888 97.64C24.5688 97.64 25.2488 97.6 25.6288 97.52C26.0288 97.44 26.2888 97.27 26.4088 97.01C26.5488 96.73 26.6188 96.25 26.6188 95.57V81.23L27.1888 80.84L20.1088 91.4C20.0288 91.54 20.0788 91.61 20.2588 91.61C23.8988 91.61 27.3988 91.55 30.7588 91.43C30.8388 91.43 30.8788 91.64 30.8788 92.06C30.8788 92.48 30.8388 92.69 30.7588 92.69C27.8188 92.55 23.8588 92.48 18.8788 92.48C18.7788 92.48 18.6988 92.45 18.6388 92.39C18.5988 92.31 18.6088 92.23 18.6688 92.15L27.6088 79.1C27.6488 79.06 27.7088 79.04 27.7888 79.04C27.9888 79.04 28.0888 79.1 28.0888 79.22V95.57Z" fill="#8B1111"></path><rect x="0.5" y="73.5" width="41" height="29" rx="4.5" stroke="#8B1111"></rect><path d="M65.34 98C65.3 98 65.28 97.94 65.28 97.82C65.28 97.7 65.3 97.64 65.34 97.64C66.3 97.64 67.01 97.59 67.47 97.49C67.95 97.37 68.28 97.17 68.46 96.89C68.64 96.61 68.73 96.17 68.73 95.57V82.76C68.73 81.8 68.49 81.32 68.01 81.32C67.75 81.32 67.39 81.45 66.93 81.71C66.49 81.95 65.91 82.34 65.19 82.88L65.13 82.91C65.05 82.91 64.99 82.86 64.95 82.76C64.91 82.66 64.93 82.59 65.01 82.55L69.75 79.04C69.85 78.98 69.92 78.95 69.96 78.95C70 78.95 70.03 78.97 70.05 79.01C70.09 79.05 70.11 79.09 70.11 79.13V95.57C70.11 96.19 70.19 96.64 70.35 96.92C70.51 97.2 70.82 97.39 71.28 97.49C71.74 97.59 72.48 97.64 73.5 97.64C73.54 97.64 73.56 97.7 73.56 97.82C73.56 97.94 73.54 98 73.5 98C72.78 98 72.21 97.99 71.79 97.97L69.42 97.94L67.08 97.97C66.66 97.99 66.08 98 65.34 98ZM75.6188 88.01C75.5188 88.01 75.4388 87.98 75.3788 87.92C75.3188 87.84 75.2988 87.75 75.3188 87.65L76.2788 79.61C76.2988 79.47 76.3288 79.38 76.3688 79.34C76.4088 79.28 76.5088 79.25 76.6688 79.25C79.3688 79.25 81.1587 79.24 82.0387 79.22C82.9188 79.18 83.4888 79.11 83.7488 79.01C84.0288 78.91 84.2488 78.7 84.4088 78.38C84.4088 78.34 84.4488 78.32 84.5288 78.32C84.5888 78.32 84.6388 78.34 84.6788 78.38C84.7388 78.4 84.7588 78.43 84.7388 78.47L84.3788 80.12C84.3188 80.34 84.2288 80.48 84.1088 80.54C84.0088 80.6 83.8188 80.63 83.5388 80.63L77.3888 80.48C77.1288 80.48 76.9788 80.62 76.9388 80.9L76.1288 87.62L75.6188 88.01ZM74.9588 95.87C75.4588 96.47 76.0588 96.92 76.7588 97.22C77.4588 97.5 78.2088 97.64 79.0088 97.64C80.4488 97.64 81.5288 97.19 82.2488 96.29C82.9688 95.37 83.3288 94.17 83.3288 92.69C83.3288 91.13 82.9188 89.9 82.0988 89C81.2988 88.08 80.0588 87.62 78.3788 87.62C77.1988 87.62 76.2788 87.75 75.6188 88.01C75.5988 88.01 75.5888 87.99 75.5888 87.95C75.5888 87.85 75.5988 87.75 75.6188 87.65C75.6588 87.53 75.6888 87.44 75.7088 87.38C76.1288 87.24 76.6688 87.11 77.3288 86.99C78.0088 86.85 78.7188 86.78 79.4588 86.78C81.1988 86.78 82.5688 87.26 83.5688 88.22C84.5688 89.18 85.0688 90.56 85.0688 92.36C85.0688 94.26 84.5188 95.74 83.4188 96.8C82.3388 97.84 80.9588 98.36 79.2788 98.36C78.3388 98.36 77.4988 98.18 76.7588 97.82C76.0188 97.44 75.3288 96.87 74.6888 96.11L74.6588 96.05C74.6588 95.97 74.6988 95.91 74.7788 95.87C74.8588 95.81 74.9188 95.81 74.9588 95.87Z" fill="#8B1111"></path><rect x="54.5" y="73.5" width="41" height="29" rx="4.5" stroke="#8B1111"></rect><path d="M179.34 98C179.3 98 179.28 97.94 179.28 97.82C179.28 97.7 179.3 97.64 179.34 97.64C180.3 97.64 181.01 97.59 181.47 97.49C181.95 97.37 182.28 97.17 182.46 96.89C182.64 96.61 182.73 96.17 182.73 95.57V82.76C182.73 81.8 182.49 81.32 182.01 81.32C181.75 81.32 181.39 81.45 180.93 81.71C180.49 81.95 179.91 82.34 179.19 82.88L179.13 82.91C179.05 82.91 178.99 82.86 178.95 82.76C178.91 82.66 178.93 82.59 179.01 82.55L183.75 79.04C183.85 78.98 183.92 78.95 183.96 78.95C184 78.95 184.03 78.97 184.05 79.01C184.09 79.05 184.11 79.09 184.11 79.13V95.57C184.11 96.19 184.19 96.64 184.35 96.92C184.51 97.2 184.82 97.39 185.28 97.49C185.74 97.59 186.48 97.64 187.5 97.64C187.54 97.64 187.56 97.7 187.56 97.82C187.56 97.94 187.54 98 187.5 98C186.78 98 186.21 97.99 185.79 97.97L183.42 97.94L181.08 97.97C180.66 97.99 180.08 98 179.34 98ZM192.199 97.34C192.079 97.62 191.979 97.8 191.899 97.88C191.839 97.96 191.729 98 191.569 98H190.579C190.519 98 190.459 97.98 190.399 97.94C190.359 97.88 190.349 97.81 190.369 97.73L197.929 80.69C198.009 80.55 197.959 80.48 197.779 80.48C194.779 80.48 192.699 80.52 191.539 80.6C190.379 80.68 189.599 80.85 189.199 81.11C188.819 81.37 188.529 81.84 188.329 82.52C188.329 82.58 188.279 82.61 188.179 82.61C188.139 82.61 188.089 82.6 188.029 82.58C187.989 82.54 187.979 82.5 187.999 82.46L188.959 78.47C188.979 78.41 189.049 78.39 189.169 78.41C189.289 78.41 189.339 78.44 189.319 78.5C189.299 78.58 189.289 78.68 189.289 78.8C189.289 78.98 189.379 79.1 189.559 79.16C189.759 79.22 190.149 79.25 190.729 79.25H198.679C198.759 79.25 198.829 79.3 198.889 79.4C198.969 79.5 198.989 79.58 198.949 79.64L192.199 97.34Z" fill="#8B1111"></path><rect x="168.5" y="73.5" width="41" height="29" rx="4.5" stroke="#8B1111"></rect><path d="M232.34 98C232.3 98 232.28 97.94 232.28 97.82C232.28 97.7 232.3 97.64 232.34 97.64C233.3 97.64 234.01 97.59 234.47 97.49C234.95 97.37 235.28 97.17 235.46 96.89C235.64 96.61 235.73 96.17 235.73 95.57V82.76C235.73 81.8 235.49 81.32 235.01 81.32C234.75 81.32 234.39 81.45 233.93 81.71C233.49 81.95 232.91 82.34 232.19 82.88L232.13 82.91C232.05 82.91 231.99 82.86 231.95 82.76C231.91 82.66 231.93 82.59 232.01 82.55L236.75 79.04C236.85 78.98 236.92 78.95 236.96 78.95C237 78.95 237.03 78.97 237.05 79.01C237.09 79.05 237.11 79.09 237.11 79.13V95.57C237.11 96.19 237.19 96.64 237.35 96.92C237.51 97.2 237.82 97.39 238.28 97.49C238.74 97.59 239.48 97.64 240.5 97.64C240.54 97.64 240.56 97.7 240.56 97.82C240.56 97.94 240.54 98 240.5 98C239.78 98 239.21 97.99 238.79 97.97L236.42 97.94L234.08 97.97C233.66 97.99 233.08 98 232.34 98ZM248.409 87.83C249.249 87.23 249.879 86.52 250.299 85.7C250.719 84.88 250.929 84 250.929 83.06C250.929 81.9 250.589 81 249.909 80.36C249.229 79.72 248.409 79.4 247.449 79.4C246.649 79.4 245.989 79.66 245.469 80.18C244.949 80.7 244.689 81.35 244.689 82.13C244.689 82.93 244.879 83.62 245.259 84.2C245.639 84.78 246.089 85.26 246.609 85.64C247.149 86.02 247.939 86.53 248.979 87.17C249.999 87.77 250.819 88.32 251.439 88.82C252.079 89.3 252.609 89.9 253.029 90.62C253.469 91.34 253.689 92.2 253.689 93.2C253.689 94.26 253.419 95.19 252.879 95.99C252.339 96.77 251.599 97.37 250.659 97.79C249.739 98.19 248.719 98.39 247.599 98.39C246.399 98.39 245.349 98.17 244.449 97.73C243.549 97.29 242.859 96.69 242.379 95.93C241.919 95.15 241.689 94.28 241.689 93.32C241.689 92.38 241.929 91.47 242.409 90.59C242.909 89.71 243.549 88.94 244.329 88.28C245.109 87.62 245.919 87.14 246.759 86.84L246.909 87.08C245.789 87.62 244.919 88.39 244.299 89.39C243.679 90.39 243.369 91.47 243.369 92.63C243.369 93.59 243.579 94.47 243.999 95.27C244.419 96.07 244.999 96.71 245.739 97.19C246.499 97.65 247.369 97.88 248.349 97.88C249.569 97.88 250.539 97.54 251.259 96.86C251.999 96.16 252.369 95.17 252.369 93.89C252.369 92.97 252.149 92.18 251.709 91.52C251.269 90.84 250.739 90.28 250.119 89.84C249.519 89.38 248.679 88.83 247.599 88.19C246.659 87.61 245.909 87.11 245.349 86.69C244.789 86.25 244.319 85.73 243.939 85.13C243.579 84.53 243.399 83.83 243.399 83.03C243.399 82.19 243.629 81.46 244.089 80.84C244.549 80.22 245.139 79.75 245.859 79.43C246.599 79.09 247.359 78.92 248.139 78.92C248.959 78.92 249.699 79.09 250.359 79.43C251.019 79.77 251.529 80.23 251.889 80.81C252.249 81.39 252.429 82.02 252.429 82.7C252.429 83.76 252.069 84.75 251.349 85.67C250.649 86.57 249.719 87.35 248.559 88.01L248.409 87.83Z" fill="#8B1111"></path><rect x="222.5" y="73.5" width="41" height="29" rx="4.5" stroke="#8B1111"></rect></svg> 