<?xml version="1.0" encoding="UTF-8"?> <svg xmlns="http://www.w3.org/2000/svg" width="400" height="108" viewBox="0 0 400 108" fill="none"><path fill-rule="evenodd" clip-rule="evenodd" d="M227.174 0.833746C214.89 3.21388 198.235 10.42 184.548 19.2784C178.067 23.472 169.253 30.4274 162.434 36.7275C159.409 39.5222 156.442 42.2164 155.842 42.7141C154.342 43.9572 122.753 44.4128 107.801 43.4074C71.906 40.9931 51.331 36.5251 28.2609 26.1357C15.4125 20.349 7.52174 15.7203 1.49457 10.4331L0 9.12231V11.2076C0 13.8385 1.52283 15.0469 12.7717 21.337C31.5337 31.8282 50.8451 38.4342 72.5543 41.7869C93.7734 45.0638 121.801 46.6657 142.935 45.8086C148.166 45.5963 152.535 45.5032 152.645 45.6019C152.754 45.7006 150.7 48.4332 148.079 51.6748C143.543 57.286 136.629 68.1024 134.699 72.605C132.26 78.2969 131.427 80.7925 130.369 85.5682C129.37 90.079 129.303 91.1837 129.857 94.0113C131.071 100.207 134.933 104.458 141.378 106.696C150.665 109.921 165.397 105.931 185.054 94.8659C196.723 88.2978 201.93 84.9203 212.772 76.8887C227.669 65.8526 235.898 60.962 240.61 60.3432C242.748 60.0627 243.538 60.26 245.079 61.4591C247.608 63.4246 248.585 65.518 251.628 75.4947C254.985 86.4955 256.546 90.1826 259.455 93.9803C264.152 100.112 270.882 102.711 280.435 102.081C288.489 101.551 296.497 99.0087 310.054 92.6801C316.533 89.6557 365.533 68.6864 382.065 61.8631C384.606 60.8143 388.152 59.3347 389.946 58.5738C391.739 57.8135 394.735 56.5592 396.603 55.7865C398.532 54.9884 400 54.0109 400 53.5255C400 52.4444 399.44 52.4512 396.886 53.5603C395.759 54.05 392.269 55.4805 389.13 56.7398C384.066 58.7718 366.763 66.0778 337.5 78.5402C332.269 80.7682 322.242 85.1946 315.217 88.3766C289.402 100.072 280.459 102.167 270.589 98.8324C263.224 96.3443 258.892 89.562 254.37 73.4429C251.379 62.7804 249.412 59.5792 245.023 58.2299C239.149 56.4239 230.692 60.9825 205.577 79.4929C196.333 86.3062 181.984 94.9597 173.37 98.9168C169.932 100.496 164.093 102.631 160.393 103.662C147.739 107.187 139.031 105.399 134.957 98.4383C131.685 92.847 132.027 85.8214 136.022 76.5647C138.207 71.5028 142.19 64.319 143.02 63.9453C143.272 63.8311 143.478 63.4613 143.478 63.1224C143.478 62.1617 147.818 55.9696 152.393 50.4044L156.552 45.345L160.477 44.9397C182.642 42.6477 205.235 39.3124 215.761 36.7784C228.314 33.7553 240.846 28.8733 246.467 24.8156C252.819 20.231 257.609 13.9601 257.609 10.2289C257.609 6.08617 253.283 2.01171 247.392 0.604115C243.626 -0.295183 232.339 -0.167335 227.174 0.833746ZM231.25 2.21714C213.893 4.91193 193.58 14.2587 176.087 27.5998C169.289 32.7852 159.783 41.4579 159.783 42.4758C159.783 43.2565 180.634 40.9217 196.739 38.3374C226.979 33.4853 242.286 27.6563 251.231 17.5865C255.428 12.861 255.344 8.50665 250.991 5.13909C249.604 4.06725 247.128 2.90605 245.363 2.5014C242.38 1.81746 234.809 1.66478 231.25 2.21714Z" fill="#8B1111"></path></svg> 